<svg xmlns="http://www.w3.org/2000/svg">
    <symbol id="search">
        <svg viewBox="0 0 30 31" fill="none" xmlns="http://www.w3.org/2000/svg">
            <path
                d="M18.9145 19.352L25.625 26.0625M21.1514 13.2006C21.1514 17.8332 17.3957 21.5889 12.7631 21.5889C8.1305 21.5889 4.375 17.8332 4.375 13.2006C4.375 8.568 8.1305 4.8125 12.7631 4.8125C17.3957 4.8125 21.1514 8.568 21.1514 13.2006Z"
                stroke="currentColor"
                stroke-width="2"
                stroke-linecap="round" />
        </svg>
    </symbol>
    <symbol id="favorite">
        <svg viewBox="0 0 30 31" fill="none" xmlns="http://www.w3.org/2000/svg">
            <path
                fill-rule="evenodd"
                clip-rule="evenodd"
                d="M26.0586 5.35696C24.3991 3.66467 22.5517 3.14114 20.8169 3.26814C19.1289 3.39171 17.6088 4.12392 16.4985 4.82821C15.6229 5.38361 14.3767 5.38361 13.5011 4.82821C12.3909 4.12393 10.8707 3.39173 9.1828 3.26816C7.44793 3.14116 5.60057 3.66468 3.94112 5.35697C1.98203 7.35483 1.36738 9.82111 1.6142 12.3158C1.85817 14.7817 2.93983 17.2885 4.38247 19.5097C5.82896 21.7369 7.6767 23.7365 9.53041 25.1884C11.3433 26.6084 13.3159 27.6249 14.9999 27.6249C16.6838 27.6249 18.6564 26.6084 20.4693 25.1884C22.323 23.7365 24.1707 21.7369 25.6172 19.5097C27.0599 17.2885 28.1415 14.7817 28.3855 12.3158C28.6323 9.8211 28.0177 7.35482 26.0586 5.35696ZM17.5029 6.41152C18.4847 5.78872 19.6999 5.22993 20.9538 5.13814C22.1607 5.04978 23.4615 5.38654 24.7198 6.66974C26.2238 8.20353 26.7218 10.0873 26.5196 12.1312C26.3145 14.2038 25.3855 16.4241 24.0448 18.4885C22.7079 20.5469 20.9994 22.3915 19.3131 23.7123C17.5861 25.0651 16.0347 25.7499 14.9999 25.7499C13.965 25.7499 12.4137 25.0651 10.6866 23.7123C9.00027 22.3915 7.29185 20.5469 5.95493 18.4885C4.61415 16.4241 3.68514 14.2038 3.48009 12.1312C3.27787 10.0873 3.77583 8.20354 5.27987 6.66974C6.53816 5.38656 7.83899 5.0498 9.0459 5.13816C10.2997 5.22994 11.515 5.78873 12.4968 6.41153C13.9854 7.35584 16.0142 7.35584 17.5029 6.41152Z"
                fill="currentColor" />
        </svg>
    </symbol>
    <symbol id="cart">
        <svg viewBox="0 0 30 31" fill="none" xmlns="http://www.w3.org/2000/svg">
            <path
                d="M12.5002 17C11.9825 17 11.5627 17.4197 11.5627 17.9375C11.5627 18.4552 11.9825 18.875 12.5002 18.875H20.0002C20.518 18.875 20.9377 18.4552 20.9377 17.9375C20.9377 17.4197 20.518 17 20.0002 17H12.5002Z"
                fill="currentColor" />
            <path
                fill-rule="evenodd"
                clip-rule="evenodd"
                d="M2.15973 2.7101C2.03415 2.20779 1.52515 1.90239 1.02284 2.02797C0.520537 2.15355 0.215136 2.66255 0.340713 3.16485L1.65539 8.42357L2.8789 13.5286C3.39915 15.6993 3.80865 17.4079 4.29458 18.7353C4.79303 20.0969 5.40429 21.1539 6.38501 21.9645C6.46964 22.0344 6.55587 22.1024 6.64362 22.1684C7.66044 22.9332 8.83083 23.2813 10.2711 23.4487C11.6751 23.6118 13.4321 23.6118 15.6643 23.6118H16.406C18.3373 23.6118 19.8577 23.6118 21.0825 23.488C22.337 23.3611 23.3692 23.0979 24.2981 22.5163C24.7387 22.2404 25.1481 21.9175 25.519 21.5534C26.3011 20.7856 26.7977 19.8432 27.2134 18.6528C27.6193 17.4906 27.9737 16.0122 28.4238 14.1341L28.4499 14.025C28.7214 12.8926 28.9451 11.9593 29.0315 11.2032C29.1212 10.4184 29.0846 9.67121 28.6929 8.98897C28.5253 8.69718 28.3159 8.43156 28.0711 8.20063C27.499 7.66068 26.7809 7.45093 25.9969 7.35526C25.2414 7.26308 24.2817 7.26311 23.1172 7.26313L3.29799 7.26314L2.15973 2.7101ZM4.68839 13.0337L3.75475 9.13814H23.0563C24.297 9.13814 25.1414 9.13979 25.7698 9.21646C26.3826 9.29124 26.6339 9.4224 26.7842 9.56427C26.8955 9.66924 26.9907 9.78997 27.0669 9.92261C27.1698 10.1019 27.2388 10.3768 27.1686 10.9902C27.0967 11.6191 26.9015 12.4407 26.6124 13.6472C26.1477 15.586 25.8143 16.9722 25.4433 18.0346C25.0785 19.0789 24.7045 19.7255 24.2055 20.2153C23.9313 20.4845 23.6287 20.7232 23.3031 20.9271C22.7104 21.2981 21.9945 21.5112 20.8938 21.6225C19.7743 21.7357 18.3486 21.7368 16.3548 21.7368H15.7239C13.4191 21.7368 11.7709 21.7353 10.4875 21.5862C9.22792 21.4398 8.4226 21.1603 7.77067 20.67C7.70581 20.6212 7.64208 20.5709 7.57952 20.5192C6.95074 19.9995 6.49124 19.2815 6.0553 18.0907C5.61115 16.8775 5.22557 15.275 4.68839 13.0337Z"
                fill="currentColor" />
            <path
                d="M13.0923 26.6217C13.0923 27.3484 12.5032 27.9375 11.7765 27.9375C11.0498 27.9375 10.4607 27.3484 10.4607 26.6217C10.4607 25.895 11.0498 25.3059 11.7765 25.3059C12.5032 25.3059 13.0923 25.895 13.0923 26.6217Z"
                fill="currentColor" />
            <path
                d="M20.9871 26.6217C20.9871 27.3484 20.398 27.9375 19.6713 27.9375C18.9446 27.9375 18.3555 27.3484 18.3555 26.6217C18.3555 25.895 18.9446 25.3059 19.6713 25.3059C20.398 25.3059 20.9871 25.895 20.9871 26.6217Z"
                fill="currentColor" />
        </svg>
    </symbol>
    <symbol id="arrow-down">
        <svg viewBox="0 0 11 11" fill="none" xmlns="http://www.w3.org/2000/svg">
            <path
                d="M1.05295 3.56117C0.781667 3.83298 0.781667 4.27366 1.05295 4.54554L4.45133 7.94748C4.99399 8.49068 5.87328 8.49046 6.41559 7.947L9.81271 4.54303C10.084 4.27115 10.084 3.83048 9.81271 3.55859C9.54145 3.28678 9.1016 3.28678 8.83033 3.55859L5.92274 6.47209C5.65148 6.74392 5.21169 6.74392 4.94036 6.47209L2.03533 3.56117C1.76406 3.28929 1.32422 3.28929 1.05295 3.56117Z"
                fill="currentColor" />
        </svg>
    </symbol>
    <symbol id="arrow-left">
        <svg viewBox="0 0 40 40" fill="none" xmlns="http://www.w3.org/2000/svg">
            <path d="M23.3333 34.1666L14.1666 20L23.3333 5.83329" stroke="currentColor" stroke-linecap="round" />
        </svg>
    </symbol>
    <symbol id="arrow-right">
        <svg viewBox="0 0 40 40" fill="none" xmlns="http://www.w3.org/2000/svg">
            <path d="M16.6666 5.83337L25.8333 20L16.6666 34.1667" stroke="currentColor" stroke-linecap="round" />
        </svg>
    </symbol>
    <symbol id="advantage-1">
        <svg viewBox="0 0 30 30" fill="none" xmlns="http://www.w3.org/2000/svg">
            <path
                fill-rule="evenodd"
                clip-rule="evenodd"
                d="M24.6066 14.0238C24.0581 13.1908 19.6181 15.5248 17.2714 18.1647C14.5034 20.0366 3.64864 27.3835 0.5 30.0001C4.13409 28.1223 15.1306 20.9891 17.9326 19.1686C21.2735 18.0395 25.1551 14.8578 24.6066 14.0238ZM23.8901 14.4607C24.0377 14.685 22.827 15.7472 21.189 16.8336C19.5501 17.9191 18.1016 18.6191 17.954 18.3939C17.8054 18.1696 19.0152 17.1055 20.653 16.02C22.292 14.9336 23.7415 14.2355 23.8901 14.4598V14.4607Z"
                fill="currentColor" />
            <path
                d="M24.6066 14.0238C24.0581 13.1908 19.6181 15.5248 17.2715 18.1647C14.5034 20.0366 3.64865 27.3835 0.5 30.0001C4.1341 28.1223 15.1306 20.9891 17.9326 19.1686C21.2735 18.0395 25.1552 14.8578 24.6066 14.0238ZM23.8901 14.4607C24.0377 14.685 22.827 15.7472 21.1891 16.8336C19.5501 17.9191 18.1016 18.6191 17.954 18.3939C17.8055 18.1696 19.0152 17.1055 20.6531 16.02C22.292 14.9336 23.7416 14.2355 23.8901 14.4598V14.4607Z"
                fill="currentColor"
                stroke="currentColor"
                stroke-width="0.133173" />
            <path
                fill-rule="evenodd"
                clip-rule="evenodd"
                d="M20.6026 17.1646C20.69 17.2957 19.6774 15.851 20.9493 17.6743C22.2221 19.4987 23.3144 20.523 25.8543 21.6783C26.0242 21.756 26.2232 21.6813 26.3009 21.5113C26.3776 21.3405 26.3028 21.1395 26.1329 21.0628C23.6717 19.9424 22.7299 19.0647 21.5163 17.3112C20.3017 15.5578 21.257 16.9296 21.1687 16.7976C21.0813 16.6665 20.992 16.5306 20.8988 16.3898C20.8162 16.2636 20.7279 16.1267 20.6376 15.984C20.6192 15.9956 20.6007 16.0073 20.5823 16.0189C20.4085 16.1345 20.2415 16.249 20.0784 16.3626C20.1677 16.5025 20.2541 16.6364 20.3356 16.7607C20.4259 16.8996 20.5153 17.0335 20.6026 17.1646ZM24.1785 4.25927e-06C24.1329 4.25927e-06 24.0882 0.000975225 24.0445 0.00194607C23.9445 0.0058297 23.8474 0.0126259 23.7532 0.023306C23.0037 0.110687 22.4512 0.468951 22.1949 0.999065C21.9376 1.52821 21.9687 2.169 22.1823 2.82242C22.3959 3.47681 22.7969 4.15936 23.3484 4.80598C23.4688 4.94773 23.6814 4.96424 23.8231 4.84288C23.9649 4.72151 23.9814 4.50792 23.86 4.36616C23.3571 3.77586 23.0018 3.15836 22.8231 2.61271C22.6454 2.06609 22.6493 1.60491 22.7998 1.29422C22.9503 0.9845 23.2387 0.764105 23.8309 0.69517C24.4232 0.62624 25.3028 0.74566 26.4786 1.16023C28.7495 1.96317 29.4223 3.85547 29.2408 5.4332C29.1495 6.22155 28.8291 6.91675 28.4058 7.32065C27.9825 7.7255 27.499 7.87115 26.8795 7.6187C25.4591 7.04005 24.1785 6.2662 22.828 5.8633C21.4784 5.46135 20.0347 5.46815 18.4657 6.4575C17.6414 6.9779 17.2375 7.79735 17.154 8.6935C17.0715 9.5906 17.2763 10.5742 17.6181 11.5635C18.1579 13.1266 19.0463 14.7053 19.7871 15.8985C19.9725 15.7665 20.158 15.6393 20.3444 15.517C19.6201 14.3451 18.7618 12.8101 18.255 11.3411C17.9317 10.4061 17.756 9.5003 17.8249 8.7556C17.8948 8.0119 18.1773 7.4391 18.8259 7.03035C20.2454 6.13515 21.4046 6.14485 22.6367 6.51185C23.8678 6.87885 25.1455 7.64105 26.6261 8.24495C27.4679 8.58765 28.2971 8.35755 28.8709 7.80995C29.4437 7.26235 29.8039 6.4303 29.9107 5.5099C30.1224 3.67099 29.2534 1.42335 26.7019 0.52235C25.6882 0.164087 24.8572 -0.00096683 24.1785 4.25927e-06Z"
                fill="currentColor" />
        </svg>
    </symbol>
    <symbol id="advantage-2">
        <svg viewBox="0 0 30 30" fill="none" xmlns="http://www.w3.org/2000/svg">
            <path
                d="M14.8673 25.5085C11.4389 25.5085 8.3583 24.629 6.3769 23.8915C4.22926 23.0917 2.90765 22.3016 2.85226 22.2686C2.69484 22.1734 2.64333 21.9683 2.73759 21.8099C2.83283 21.6515 3.03689 21.6 3.19432 21.6953C3.25263 21.7293 8.5031 24.8389 14.8673 24.8389C21.2343 24.8389 26.4877 21.7263 26.5401 21.6953C26.6976 21.6 26.9017 21.6515 26.996 21.8099C27.0912 21.9683 27.0396 22.1734 26.8822 22.2686C26.8268 22.3016 25.5052 23.0917 23.3576 23.8915C21.3762 24.629 18.2957 25.5085 14.8673 25.5085Z"
                fill="currentColor" />
            <path
                d="M23.1796 10.0486C23.166 10.0486 23.1514 10.0477 23.1368 10.0457C22.9541 10.0214 22.8259 9.85425 22.8501 9.6706C23.269 6.45015 24.37 4.0246 25.2203 2.5582C26.1464 0.95963 26.9685 0.131679 27.0025 0.0976665C27.1327 -0.0325505 27.3436 -0.0315788 27.4729 0.0986385C27.6031 0.229828 27.6021 0.441674 27.4719 0.57189C27.4641 0.579665 26.6653 1.38721 25.782 2.91775C24.9676 4.32779 23.9133 6.65905 23.51 9.7571C23.4876 9.9252 23.3448 10.0486 23.1796 10.0486Z"
                fill="currentColor" />
            <path
                d="M29.5184 30.0001C29.3348 30.0001 29.1861 29.8504 29.1861 29.6658C29.1861 25.9332 27.6361 23.5922 25.9938 21.1142C25.0677 19.7148 24.1095 18.2679 23.4701 16.5634C23.406 16.3914 23.4925 16.198 23.6645 16.1329C23.8365 16.0678 24.0289 16.1552 24.093 16.3282C24.7052 17.9608 25.642 19.3757 26.5487 20.743C28.1725 23.1957 29.8517 25.7311 29.8517 29.6658C29.8517 29.8504 29.7031 30.0001 29.5184 30.0001Z"
                fill="currentColor" />
            <path
                d="M0.332346 30C0.148681 30 0 29.8504 0 29.6657C0 25.8321 1.7249 23.0956 3.39342 20.4494C5.0056 17.8937 6.5274 15.4788 6.5274 12.1816C6.5274 5.48415 2.40805 0.600985 2.36627 0.5524C2.24674 0.412463 2.26228 0.201588 2.40125 0.081089C2.54021 -0.0394107 2.75109 -0.0238623 2.87062 0.116073C2.91531 0.167576 3.96969 1.40853 5.0367 3.52019C6.02015 5.4676 7.19305 8.552 7.19305 12.1816C7.19305 15.6731 5.54785 18.2833 3.95608 20.8071C2.33808 23.3725 0.665665 26.0264 0.665665 29.6657C0.665665 29.8504 0.51601 30 0.332346 30Z"
                fill="currentColor" />
            <path
                d="M15.0665 20.4242C14.8828 20.4242 14.7332 20.2746 14.7332 20.0899V19.3048C14.7332 19.1201 14.8828 18.9705 15.0665 18.9705C15.2502 18.9705 15.3988 19.1201 15.3988 19.3048V20.0899C15.3988 20.2746 15.2502 20.4242 15.0665 20.4242Z"
                fill="currentColor" />
            <path
                d="M11.6114 10.2769C11.3335 10.2769 11.1071 10.5043 11.1071 10.7832V15.6052C11.1071 15.8841 11.3335 16.1114 11.6114 16.1114H28.6816C28.9605 16.1114 29.1859 15.8841 29.1859 15.6052V10.7832C29.1859 10.5043 28.9605 10.2769 28.6816 10.2769H11.6114ZM28.6816 16.78H11.6114C10.9662 16.78 10.4414 16.2533 10.4414 15.6052V10.7832C10.4414 10.1351 10.9662 9.6084 11.6114 9.6084H28.6816C29.3268 9.6084 29.8516 10.1351 29.8516 10.7832V15.6052C29.8516 16.2533 29.3268 16.78 28.6816 16.78Z"
                fill="currentColor" />
            <path
                d="M27.0083 12.9678C26.8247 12.9678 26.676 12.8182 26.676 12.6336V9.94856C26.676 9.76391 26.8247 9.61426 27.0083 9.61426C27.192 9.61426 27.3417 9.76391 27.3417 9.94856V12.6336C27.3417 12.8182 27.192 12.9678 27.0083 12.9678Z"
                fill="currentColor" />
            <path
                d="M24.1619 12.9678C23.9782 12.9678 23.8296 12.8182 23.8296 12.6336V9.94856C23.8296 9.76391 23.9782 9.61426 24.1619 9.61426C24.3456 9.61426 24.4943 9.76391 24.4943 9.94856V12.6336C24.4943 12.8182 24.3456 12.9678 24.1619 12.9678Z"
                fill="currentColor" />
            <path
                d="M21.443 12.9678C21.2593 12.9678 21.1096 12.8182 21.1096 12.6336V9.94856C21.1096 9.76391 21.2593 9.61426 21.443 9.61426C21.6266 9.61426 21.7753 9.76391 21.7753 9.94856V12.6336C21.7753 12.8182 21.6266 12.9678 21.443 12.9678Z"
                fill="currentColor" />
            <path
                d="M18.724 12.9678C18.5403 12.9678 18.3906 12.8182 18.3906 12.6336V9.94856C18.3906 9.76391 18.5403 9.61426 18.724 9.61426C18.9076 9.61426 19.0563 9.76391 19.0563 9.94856V12.6336C19.0563 12.8182 18.9076 12.9678 18.724 12.9678Z"
                fill="currentColor" />
            <path
                d="M16.0052 12.9678C15.8215 12.9678 15.6719 12.8182 15.6719 12.6336V9.94856C15.6719 9.76391 15.8215 9.61426 16.0052 9.61426C16.1888 9.61426 16.3375 9.76391 16.3375 9.94856V12.6336C16.3375 12.8182 16.1888 12.9678 16.0052 12.9678Z"
                fill="currentColor" />
            <path
                d="M13.2859 12.9678C13.1013 12.9678 12.9526 12.8182 12.9526 12.6336V9.94856C12.9526 9.76391 13.1013 9.61426 13.2859 9.61426C13.4696 9.61426 13.6183 9.76391 13.6183 9.94856V12.6336C13.6183 12.8182 13.4696 12.9678 13.2859 12.9678Z"
                fill="currentColor" />
        </svg>
    </symbol>
    <symbol id="advantage-3">
        <svg viewBox="0 0 30 30" fill="none" xmlns="http://www.w3.org/2000/svg">
            <path
                d="M19.589 22.4107H10.8778C10.1257 22.4107 9.44243 22.0584 9.00377 21.445C8.56413 20.8307 8.44961 20.0669 8.68739 19.3498L9.72873 16.2209C10.5459 13.7655 10.41 11.1142 9.34538 8.75485L8.73979 7.4107C8.15749 6.11995 8.66992 4.57589 9.90633 3.89654L11.2641 3.14926C11.8842 2.80765 12.4665 1.6809 12.8916 0.85792C12.9789 0.68808 13.0614 0.52795 13.1381 0.386257L13.2516 0.177601C13.3108 0.0689055 13.4254 0 13.5486 0H16.9172C17.0414 0 17.1559 0.0689055 17.2151 0.177601L17.3287 0.387228C17.4064 0.52892 17.4888 0.689055 17.5772 0.85986C18.0013 1.68187 18.5835 2.80764 19.2027 3.14829L20.5604 3.89558C21.7968 4.57589 22.3093 6.11995 21.727 7.4107L21.1204 8.75485C20.0568 11.1142 19.9209 13.7655 20.7381 16.2209L21.7784 19.3498C22.0172 20.0669 21.9026 20.8307 21.463 21.445C21.0234 22.0584 20.3401 22.4107 19.589 22.4107ZM10.3712 16.4373L9.33082 19.5662C9.16196 20.0728 9.24348 20.6124 9.55404 21.0462C9.86363 21.48 10.3469 21.7295 10.8778 21.7295H19.589C20.1199 21.7295 20.6021 21.48 20.9128 21.0462C21.2233 20.6124 21.3048 20.0728 21.136 19.5662L20.0956 16.4373C19.2241 13.8179 19.3686 10.9899 20.5032 8.4734L21.1097 7.12925C21.5464 6.1617 21.1621 5.0039 20.2353 4.49437L18.8776 3.74709C18.077 3.30649 17.4665 2.12442 16.9754 1.1743C16.889 1.00738 16.8076 0.850155 16.7338 0.714285L16.7163 0.68226H13.7495L13.733 0.713315C13.6592 0.849185 13.5787 1.0064 13.4923 1.17236C13.0012 2.12345 12.3898 3.30649 11.5892 3.74709L10.2314 4.49437C9.30462 5.0039 8.9203 6.1617 9.35703 7.12925L9.96262 8.4734C11.0981 10.9899 11.2427 13.8179 10.3712 16.4373Z"
                fill="currentColor" />
            <path
                d="M12.7313 30C12.6459 30 12.5605 29.968 12.4945 29.903C12.3606 29.7719 12.3577 29.5555 12.4877 29.4206L14.9907 26.8362C15.1207 26.7003 15.3362 26.6984 15.4701 26.8294C15.604 26.9604 15.6069 27.1768 15.4759 27.3117L12.9739 29.8971C12.907 29.9651 12.8187 30 12.7313 30Z"
                fill="currentColor" />
            <path
                d="M17.7353 29.9999C17.647 29.9999 17.5596 29.9649 17.4927 29.897L14.9907 27.3116C14.8597 27.1767 14.8626 26.9603 14.9966 26.8293C15.1305 26.6982 15.345 26.7012 15.476 26.8361L17.9779 29.4205C18.1089 29.5554 18.106 29.7718 17.9721 29.9028C17.9061 29.9678 17.8207 29.9999 17.7353 29.9999Z"
                fill="currentColor" />
            <path
                d="M15.2334 27.4147C15.0461 27.4147 14.8947 27.2623 14.8947 27.074V22.0701C14.8947 21.8819 15.0461 21.7285 15.2334 21.7285C15.4207 21.7285 15.5721 21.8819 15.5721 22.0701V27.074C15.5721 27.2623 15.4207 27.4147 15.2334 27.4147Z"
                fill="currentColor" />
        </svg>
    </symbol>
    <symbol id="can">
        <svg viewBox="0 0 20 20" fill="none" xmlns="http://www.w3.org/2000/svg">
            <path
                d="M1.6665 5.00002H18.3332M8.33317 9.16669V13.3334M11.6665 9.16669V13.3334M3.33317 5.00002H16.6665L15.3498 16.85C15.3047 17.2578 15.1107 17.6347 14.805 17.9084C14.4994 18.1821 14.1035 18.3334 13.6932 18.3334H6.3065C5.8962 18.3334 5.5003 18.1821 5.19463 17.9084C4.88895 17.6347 4.69497 17.2578 4.64984 16.85L3.33317 5.00002ZM6.12067 2.62252C6.25546 2.33666 6.46876 2.09502 6.73567 1.92578C7.00259 1.75654 7.31212 1.66668 7.62817 1.66669H12.3715C12.6877 1.66653 12.9974 1.75631 13.2645 1.92556C13.5316 2.0948 13.745 2.33653 13.8798 2.62252L14.9998 5.00002H4.99984L6.12067 2.62252Z"
                stroke="currentColor"
                stroke-linecap="round"
                stroke-linejoin="round" />
        </svg>
    </symbol>
    <symbol id="caution">
        <svg viewBox="0 0 16 16" fill="none" xmlns="http://www.w3.org/2000/svg">
            <path
                d="M7.508 3.6H8.468V9.24H7.508V3.6ZM7.976 12.12C7.768 12.12 7.604 12.06 7.484 11.94C7.372 11.812 7.316 11.66 7.316 11.484C7.316 11.3 7.372 11.144 7.484 11.016C7.596 10.888 7.76 10.824 7.976 10.824C8.192 10.824 8.356 10.888 8.468 11.016C8.588 11.144 8.648 11.3 8.648 11.484C8.648 11.66 8.588 11.812 8.468 11.94C8.348 12.06 8.184 12.12 7.976 12.12Z"
                fill="currentColor" />
        </svg>
    </symbol>
</svg>
