<svg xmlns="http://www.w3.org/2000/svg">
    <symbol id="search">
        <svg viewBox="0 0 24 25" fill="none" xmlns="http://www.w3.org/2000/svg">
            <path
                d="M15.1316 15.6316L20.5 21M16.9211 10.7105C16.9211 14.4166 13.9166 17.4211 10.2105 17.4211C6.5044 17.4211 3.5 14.4166 3.5 10.7105C3.5 7.0044 6.5044 4 10.2105 4C13.9166 4 16.9211 7.0044 16.9211 10.7105Z"
                stroke="currentColor"
                stroke-linecap="round" />
        </svg>
    </symbol>
    <symbol id="favorite">
        <svg viewBox="0 0 24 25" fill="none" xmlns="http://www.w3.org/2000/svg">
            <path
                d="M4.24 12.75C3.84461 12.3572 3.53134 11.8897 3.31845 11.3747C3.10556 10.8596 2.99731 10.3073 3 9.75002C3 8.62285 3.44777 7.54184 4.2448 6.74481C5.04183 5.94778 6.12283 5.50002 7.25 5.50002C8.83 5.50002 10.21 6.36002 10.94 7.64002H12.06C12.4311 6.98908 12.9681 6.44811 13.6163 6.07219C14.2645 5.69628 15.0007 5.49886 15.75 5.50002C16.8772 5.50002 17.9582 5.94778 18.7552 6.74481C19.5522 7.54184 20 8.62285 20 9.75002C20 10.92 19.5 12 18.76 12.75L11.5 20L4.24 12.75ZM19.46 13.46C20.41 12.5 21 11.2 21 9.75002C21 8.35763 20.4469 7.02227 19.4623 6.03771C18.4777 5.05314 17.1424 4.50002 15.75 4.50002C14 4.50002 12.45 5.35002 11.5 6.67002C11.0151 5.99652 10.3766 5.44834 9.63748 5.07095C8.89835 4.69356 8.0799 4.49784 7.25 4.50002C5.85761 4.50002 4.52226 5.05314 3.53769 6.03771C2.55312 7.02227 2 8.35763 2 9.75002C2 11.2 2.59 12.5 3.54 13.46L11.5 21.42L19.46 13.46Z"
                fill="currentColor" />
        </svg>
    </symbol>
    <symbol id="cart">
        <svg viewBox="0 0 24 25" fill="none" xmlns="http://www.w3.org/2000/svg">
            <path
                d="M8.50002 9.00002H4.5L4.50001 21C4.50001 21.5523 4.94772 22 5.50001 22H18.5C19.0523 22 19.5 21.5523 19.5 21V11.5M8.50002 9.00002H15.5V10M8.50002 9.00002L8.5 10M8.50002 9.00002L8.5 6.50001C8.5 4.56701 10.067 3 12 3"
                stroke="currentColor"
                stroke-linecap="round"
                stroke-linejoin="round" />
        </svg>
    </symbol>
    <symbol id="user">
        <svg viewBox="0 0 24 25" fill="none" xmlns="http://www.w3.org/2000/svg">
            <path
                d="M12 10C13.933 10 15.5 8.433 15.5 6.5C15.5 4.567 13.933 3 12 3C10.067 3 8.5 4.567 8.5 6.5C8.5 8.433 10.067 10 12 10Z"
                stroke="currentColor" />
            <path
                d="M19.2633 18.6235C18.4302 15.3895 15.4941 13 11.9999 13C8.5058 13 5.56972 15.3895 4.73663 18.6235C6.47928 20.6884 9.08647 22 11.9999 22C14.9134 22 17.5206 20.6884 19.2633 18.6235Z"
                stroke="currentColor"
                stroke-linejoin="round" />
        </svg>
    </symbol>
    <symbol id="catalog">
        <svg viewBox="0 0 24 25" fill="none" xmlns="http://www.w3.org/2000/svg">
            <path
                d="M4.50001 17.77C4.35801 17.77 4.23934 17.7216 4.14401 17.625C4.04867 17.5283 4.00067 17.4093 4.00001 17.268C3.99934 17.1266 4.04734 17.008 4.14401 16.912C4.24067 16.816 4.35934 16.7683 4.50001 16.769H19.5C19.642 16.769 19.7607 16.817 19.856 16.913C19.952 17.009 20 17.128 20 17.27C20 17.412 19.952 17.5306 19.856 17.626C19.76 17.7213 19.6413 17.769 19.5 17.769L4.50001 17.77ZM4.50001 13C4.35801 13 4.23934 12.952 4.14401 12.856C4.04867 12.76 4.00067 12.641 4.00001 12.499C3.99934 12.357 4.04734 12.2383 4.14401 12.143C4.24067 12.0476 4.35934 12 4.50001 12H19.5C19.642 12 19.7607 12.048 19.856 12.144C19.9513 12.24 19.9993 12.359 20 12.501C20.0007 12.643 19.9527 12.7616 19.856 12.857C19.7593 12.9523 19.6407 13 19.5 13H4.50001ZM4.50001 8.22996C4.35801 8.22996 4.23934 8.18229 4.14401 8.08696C4.04801 7.99096 4.00001 7.87196 4.00001 7.72996C4.00001 7.58796 4.04801 7.46929 4.14401 7.37396C4.24001 7.27862 4.35867 7.23096 4.50001 7.23096H19.5C19.642 7.23096 19.7607 7.27896 19.856 7.37496C19.9513 7.47096 19.9993 7.58929 20 7.72996C20.0007 7.87062 19.9527 7.98929 19.856 8.08596C19.7593 8.18262 19.6407 8.23062 19.5 8.22996H4.50001Z"
                fill="currentColor" />
        </svg>
    </symbol>
    <symbol id="home">
        <svg viewBox="0 0 24 24" fill="none" xmlns="http://www.w3.org/2000/svg">
            <path
                d="M19.5 9.99992C19.5 9.86731 19.4473 9.74013 19.3535 9.64636C19.2598 9.5526 19.1326 9.49992 19 9.49992C18.8674 9.49992 18.7402 9.5526 18.6464 9.64636C18.5527 9.74013 18.5 9.86731 18.5 9.99992H19.5ZM5.49999 9.99992C5.49999 9.86731 5.44731 9.74013 5.35354 9.64636C5.25978 9.5526 5.1326 9.49992 4.99999 9.49992C4.86738 9.49992 4.74021 9.5526 4.64644 9.64636C4.55267 9.74013 4.49999 9.86731 4.49999 9.99992H5.49999ZM20.646 12.3539C20.7399 12.4478 20.8672 12.5005 21 12.5005C21.1328 12.5005 21.2601 12.4478 21.354 12.3539C21.4479 12.26 21.5006 12.1327 21.5006 11.9999C21.5006 11.8671 21.4479 11.7398 21.354 11.6459L20.646 12.3539ZM12 2.99992L12.354 2.64592C12.3075 2.59935 12.2524 2.56241 12.1916 2.5372C12.1309 2.512 12.0658 2.49902 12 2.49902C11.9342 2.49902 11.8691 2.512 11.8084 2.5372C11.7476 2.56241 11.6924 2.59935 11.646 2.64592L12 2.99992ZM2.64599 11.6459C2.5521 11.7398 2.49936 11.8671 2.49936 11.9999C2.49936 12.1327 2.5521 12.26 2.64599 12.3539C2.73988 12.4478 2.86721 12.5005 2.99999 12.5005C3.13277 12.5005 3.2601 12.4478 3.35399 12.3539L2.64599 11.6459ZM6.99999 21.4999H17V20.4999H6.99999V21.4999ZM19.5 18.9999V9.99992H18.5V18.9999H19.5ZM5.49999 18.9999V9.99992H4.49999V18.9999H5.49999ZM21.354 11.6459L12.354 2.64592L11.646 3.35392L20.646 12.3539L21.354 11.6459ZM11.646 2.64592L2.64599 11.6459L3.35399 12.3539L12.354 3.35392L11.646 2.64592ZM17 21.4999C17.663 21.4999 18.2989 21.2365 18.7678 20.7677C19.2366 20.2988 19.5 19.663 19.5 18.9999H18.5C18.5 19.3977 18.342 19.7793 18.0606 20.0606C17.7793 20.3419 17.3978 20.4999 17 20.4999V21.4999ZM6.99999 20.4999C6.60217 20.4999 6.22063 20.3419 5.93933 20.0606C5.65803 19.7793 5.49999 19.3977 5.49999 18.9999H4.49999C4.49999 19.663 4.76338 20.2988 5.23222 20.7677C5.70106 21.2365 6.33695 21.4999 6.99999 21.4999V20.4999Z"
                fill="currentColor" />
        </svg>
    </symbol>
    <symbol id="arrow-down">
        <svg viewBox="0 0 11 11" fill="none" xmlns="http://www.w3.org/2000/svg">
            <path
                d="M1.05295 3.56117C0.781667 3.83298 0.781667 4.27366 1.05295 4.54554L4.45133 7.94748C4.99399 8.49068 5.87328 8.49046 6.41559 7.947L9.81271 4.54303C10.084 4.27115 10.084 3.83048 9.81271 3.55859C9.54145 3.28678 9.1016 3.28678 8.83033 3.55859L5.92274 6.47209C5.65148 6.74392 5.21169 6.74392 4.94036 6.47209L2.03533 3.56117C1.76406 3.28929 1.32422 3.28929 1.05295 3.56117Z"
                fill="currentColor" />
        </svg>
    </symbol>
    <symbol id="arrow-left">
        <svg viewBox="0 0 40 40" fill="none" xmlns="http://www.w3.org/2000/svg">
            <path d="M23.3333 34.1666L14.1666 20L23.3333 5.83329" stroke="currentColor" stroke-linecap="round" />
        </svg>
    </symbol>
    <symbol id="arrow-right">
        <svg viewBox="0 0 40 40" fill="none" xmlns="http://www.w3.org/2000/svg">
            <path d="M16.6666 5.83337L25.8333 20L16.6666 34.1667" stroke="currentColor" stroke-linecap="round" />
        </svg>
    </symbol>
    <symbol id="arrow-slider-left">
        <svg viewBox="0 0 25 50" fill="none" xmlns="http://www.w3.org/2000/svg">
            <path
                d="M19.8917 36.2917L17.6813 38.5001L5.64169 26.4647C5.44762 26.2718 5.2936 26.0425 5.1885 25.7899C5.0834 25.5373 5.0293 25.2664 5.0293 24.9928C5.0293 24.7192 5.0834 24.4483 5.1885 24.1957C5.2936 23.9431 5.44762 23.7138 5.64169 23.5209L17.6813 11.4792L19.8896 13.6876L8.58961 24.9897L19.8917 36.2917Z"
                fill="currentColor" />
        </svg>
    </symbol>
    <symbol id="arrow-slider-right">
        <svg viewBox="0 0 25 50" fill="none" xmlns="http://www.w3.org/2000/svg">
            <path
                d="M5.10831 13.7083L7.31872 11.4999L19.3583 23.5353C19.5524 23.7282 19.7064 23.9575 19.8115 24.2101C19.9166 24.4627 19.9707 24.7336 19.9707 25.0072C19.9707 25.2808 19.9166 25.5517 19.8115 25.8043C19.7064 26.0569 19.5524 26.2862 19.3583 26.4791L7.31872 38.5208L5.11039 36.3124L16.4104 25.0103L5.10831 13.7083Z"
                fill="currentColor" />
        </svg>
    </symbol>
    <symbol id="advantage-1">
        <svg viewBox="0 0 30 30" fill="none" xmlns="http://www.w3.org/2000/svg">
            <path
                fill-rule="evenodd"
                clip-rule="evenodd"
                d="M24.6066 14.0238C24.0581 13.1908 19.6181 15.5248 17.2714 18.1647C14.5034 20.0366 3.64864 27.3835 0.5 30.0001C4.13409 28.1223 15.1306 20.9891 17.9326 19.1686C21.2735 18.0395 25.1551 14.8578 24.6066 14.0238ZM23.8901 14.4607C24.0377 14.685 22.827 15.7472 21.189 16.8336C19.5501 17.9191 18.1016 18.6191 17.954 18.3939C17.8054 18.1696 19.0152 17.1055 20.653 16.02C22.292 14.9336 23.7415 14.2355 23.8901 14.4598V14.4607Z"
                fill="currentColor" />
            <path
                d="M24.6066 14.0238C24.0581 13.1908 19.6181 15.5248 17.2715 18.1647C14.5034 20.0366 3.64865 27.3835 0.5 30.0001C4.1341 28.1223 15.1306 20.9891 17.9326 19.1686C21.2735 18.0395 25.1552 14.8578 24.6066 14.0238ZM23.8901 14.4607C24.0377 14.685 22.827 15.7472 21.1891 16.8336C19.5501 17.9191 18.1016 18.6191 17.954 18.3939C17.8055 18.1696 19.0152 17.1055 20.6531 16.02C22.292 14.9336 23.7416 14.2355 23.8901 14.4598V14.4607Z"
                fill="currentColor"
                stroke="currentColor"
                stroke-width="0.133173" />
            <path
                fill-rule="evenodd"
                clip-rule="evenodd"
                d="M20.6026 17.1646C20.69 17.2957 19.6774 15.851 20.9493 17.6743C22.2221 19.4987 23.3144 20.523 25.8543 21.6783C26.0242 21.756 26.2232 21.6813 26.3009 21.5113C26.3776 21.3405 26.3028 21.1395 26.1329 21.0628C23.6717 19.9424 22.7299 19.0647 21.5163 17.3112C20.3017 15.5578 21.257 16.9296 21.1687 16.7976C21.0813 16.6665 20.992 16.5306 20.8988 16.3898C20.8162 16.2636 20.7279 16.1267 20.6376 15.984C20.6192 15.9956 20.6007 16.0073 20.5823 16.0189C20.4085 16.1345 20.2415 16.249 20.0784 16.3626C20.1677 16.5025 20.2541 16.6364 20.3356 16.7607C20.4259 16.8996 20.5153 17.0335 20.6026 17.1646ZM24.1785 4.25927e-06C24.1329 4.25927e-06 24.0882 0.000975225 24.0445 0.00194607C23.9445 0.0058297 23.8474 0.0126259 23.7532 0.023306C23.0037 0.110687 22.4512 0.468951 22.1949 0.999065C21.9376 1.52821 21.9687 2.169 22.1823 2.82242C22.3959 3.47681 22.7969 4.15936 23.3484 4.80598C23.4688 4.94773 23.6814 4.96424 23.8231 4.84288C23.9649 4.72151 23.9814 4.50792 23.86 4.36616C23.3571 3.77586 23.0018 3.15836 22.8231 2.61271C22.6454 2.06609 22.6493 1.60491 22.7998 1.29422C22.9503 0.9845 23.2387 0.764105 23.8309 0.69517C24.4232 0.62624 25.3028 0.74566 26.4786 1.16023C28.7495 1.96317 29.4223 3.85547 29.2408 5.4332C29.1495 6.22155 28.8291 6.91675 28.4058 7.32065C27.9825 7.7255 27.499 7.87115 26.8795 7.6187C25.4591 7.04005 24.1785 6.2662 22.828 5.8633C21.4784 5.46135 20.0347 5.46815 18.4657 6.4575C17.6414 6.9779 17.2375 7.79735 17.154 8.6935C17.0715 9.5906 17.2763 10.5742 17.6181 11.5635C18.1579 13.1266 19.0463 14.7053 19.7871 15.8985C19.9725 15.7665 20.158 15.6393 20.3444 15.517C19.6201 14.3451 18.7618 12.8101 18.255 11.3411C17.9317 10.4061 17.756 9.5003 17.8249 8.7556C17.8948 8.0119 18.1773 7.4391 18.8259 7.03035C20.2454 6.13515 21.4046 6.14485 22.6367 6.51185C23.8678 6.87885 25.1455 7.64105 26.6261 8.24495C27.4679 8.58765 28.2971 8.35755 28.8709 7.80995C29.4437 7.26235 29.8039 6.4303 29.9107 5.5099C30.1224 3.67099 29.2534 1.42335 26.7019 0.52235C25.6882 0.164087 24.8572 -0.00096683 24.1785 4.25927e-06Z"
                fill="currentColor" />
        </svg>
    </symbol>
    <symbol id="advantage-2">
        <svg viewBox="0 0 30 30" fill="none" xmlns="http://www.w3.org/2000/svg">
            <path
                d="M14.8673 25.5085C11.4389 25.5085 8.3583 24.629 6.3769 23.8915C4.22926 23.0917 2.90765 22.3016 2.85226 22.2686C2.69484 22.1734 2.64333 21.9683 2.73759 21.8099C2.83283 21.6515 3.03689 21.6 3.19432 21.6953C3.25263 21.7293 8.5031 24.8389 14.8673 24.8389C21.2343 24.8389 26.4877 21.7263 26.5401 21.6953C26.6976 21.6 26.9017 21.6515 26.996 21.8099C27.0912 21.9683 27.0396 22.1734 26.8822 22.2686C26.8268 22.3016 25.5052 23.0917 23.3576 23.8915C21.3762 24.629 18.2957 25.5085 14.8673 25.5085Z"
                fill="currentColor" />
            <path
                d="M23.1796 10.0486C23.166 10.0486 23.1514 10.0477 23.1368 10.0457C22.9541 10.0214 22.8259 9.85425 22.8501 9.6706C23.269 6.45015 24.37 4.0246 25.2203 2.5582C26.1464 0.95963 26.9685 0.131679 27.0025 0.0976665C27.1327 -0.0325505 27.3436 -0.0315788 27.4729 0.0986385C27.6031 0.229828 27.6021 0.441674 27.4719 0.57189C27.4641 0.579665 26.6653 1.38721 25.782 2.91775C24.9676 4.32779 23.9133 6.65905 23.51 9.7571C23.4876 9.9252 23.3448 10.0486 23.1796 10.0486Z"
                fill="currentColor" />
            <path
                d="M29.5184 30.0001C29.3348 30.0001 29.1861 29.8504 29.1861 29.6658C29.1861 25.9332 27.6361 23.5922 25.9938 21.1142C25.0677 19.7148 24.1095 18.2679 23.4701 16.5634C23.406 16.3914 23.4925 16.198 23.6645 16.1329C23.8365 16.0678 24.0289 16.1552 24.093 16.3282C24.7052 17.9608 25.642 19.3757 26.5487 20.743C28.1725 23.1957 29.8517 25.7311 29.8517 29.6658C29.8517 29.8504 29.7031 30.0001 29.5184 30.0001Z"
                fill="currentColor" />
            <path
                d="M0.332346 30C0.148681 30 0 29.8504 0 29.6657C0 25.8321 1.7249 23.0956 3.39342 20.4494C5.0056 17.8937 6.5274 15.4788 6.5274 12.1816C6.5274 5.48415 2.40805 0.600985 2.36627 0.5524C2.24674 0.412463 2.26228 0.201588 2.40125 0.081089C2.54021 -0.0394107 2.75109 -0.0238623 2.87062 0.116073C2.91531 0.167576 3.96969 1.40853 5.0367 3.52019C6.02015 5.4676 7.19305 8.552 7.19305 12.1816C7.19305 15.6731 5.54785 18.2833 3.95608 20.8071C2.33808 23.3725 0.665665 26.0264 0.665665 29.6657C0.665665 29.8504 0.51601 30 0.332346 30Z"
                fill="currentColor" />
            <path
                d="M15.0665 20.4242C14.8828 20.4242 14.7332 20.2746 14.7332 20.0899V19.3048C14.7332 19.1201 14.8828 18.9705 15.0665 18.9705C15.2502 18.9705 15.3988 19.1201 15.3988 19.3048V20.0899C15.3988 20.2746 15.2502 20.4242 15.0665 20.4242Z"
                fill="currentColor" />
            <path
                d="M11.6114 10.2769C11.3335 10.2769 11.1071 10.5043 11.1071 10.7832V15.6052C11.1071 15.8841 11.3335 16.1114 11.6114 16.1114H28.6816C28.9605 16.1114 29.1859 15.8841 29.1859 15.6052V10.7832C29.1859 10.5043 28.9605 10.2769 28.6816 10.2769H11.6114ZM28.6816 16.78H11.6114C10.9662 16.78 10.4414 16.2533 10.4414 15.6052V10.7832C10.4414 10.1351 10.9662 9.6084 11.6114 9.6084H28.6816C29.3268 9.6084 29.8516 10.1351 29.8516 10.7832V15.6052C29.8516 16.2533 29.3268 16.78 28.6816 16.78Z"
                fill="currentColor" />
            <path
                d="M27.0083 12.9678C26.8247 12.9678 26.676 12.8182 26.676 12.6336V9.94856C26.676 9.76391 26.8247 9.61426 27.0083 9.61426C27.192 9.61426 27.3417 9.76391 27.3417 9.94856V12.6336C27.3417 12.8182 27.192 12.9678 27.0083 12.9678Z"
                fill="currentColor" />
            <path
                d="M24.1619 12.9678C23.9782 12.9678 23.8296 12.8182 23.8296 12.6336V9.94856C23.8296 9.76391 23.9782 9.61426 24.1619 9.61426C24.3456 9.61426 24.4943 9.76391 24.4943 9.94856V12.6336C24.4943 12.8182 24.3456 12.9678 24.1619 12.9678Z"
                fill="currentColor" />
            <path
                d="M21.443 12.9678C21.2593 12.9678 21.1096 12.8182 21.1096 12.6336V9.94856C21.1096 9.76391 21.2593 9.61426 21.443 9.61426C21.6266 9.61426 21.7753 9.76391 21.7753 9.94856V12.6336C21.7753 12.8182 21.6266 12.9678 21.443 12.9678Z"
                fill="currentColor" />
            <path
                d="M18.724 12.9678C18.5403 12.9678 18.3906 12.8182 18.3906 12.6336V9.94856C18.3906 9.76391 18.5403 9.61426 18.724 9.61426C18.9076 9.61426 19.0563 9.76391 19.0563 9.94856V12.6336C19.0563 12.8182 18.9076 12.9678 18.724 12.9678Z"
                fill="currentColor" />
            <path
                d="M16.0052 12.9678C15.8215 12.9678 15.6719 12.8182 15.6719 12.6336V9.94856C15.6719 9.76391 15.8215 9.61426 16.0052 9.61426C16.1888 9.61426 16.3375 9.76391 16.3375 9.94856V12.6336C16.3375 12.8182 16.1888 12.9678 16.0052 12.9678Z"
                fill="currentColor" />
            <path
                d="M13.2859 12.9678C13.1013 12.9678 12.9526 12.8182 12.9526 12.6336V9.94856C12.9526 9.76391 13.1013 9.61426 13.2859 9.61426C13.4696 9.61426 13.6183 9.76391 13.6183 9.94856V12.6336C13.6183 12.8182 13.4696 12.9678 13.2859 12.9678Z"
                fill="currentColor" />
        </svg>
    </symbol>
    <symbol id="advantage-3">
        <svg viewBox="0 0 30 30" fill="none" xmlns="http://www.w3.org/2000/svg">
            <path
                d="M19.589 22.4107H10.8778C10.1257 22.4107 9.44243 22.0584 9.00377 21.445C8.56413 20.8307 8.44961 20.0669 8.68739 19.3498L9.72873 16.2209C10.5459 13.7655 10.41 11.1142 9.34538 8.75485L8.73979 7.4107C8.15749 6.11995 8.66992 4.57589 9.90633 3.89654L11.2641 3.14926C11.8842 2.80765 12.4665 1.6809 12.8916 0.85792C12.9789 0.68808 13.0614 0.52795 13.1381 0.386257L13.2516 0.177601C13.3108 0.0689055 13.4254 0 13.5486 0H16.9172C17.0414 0 17.1559 0.0689055 17.2151 0.177601L17.3287 0.387228C17.4064 0.52892 17.4888 0.689055 17.5772 0.85986C18.0013 1.68187 18.5835 2.80764 19.2027 3.14829L20.5604 3.89558C21.7968 4.57589 22.3093 6.11995 21.727 7.4107L21.1204 8.75485C20.0568 11.1142 19.9209 13.7655 20.7381 16.2209L21.7784 19.3498C22.0172 20.0669 21.9026 20.8307 21.463 21.445C21.0234 22.0584 20.3401 22.4107 19.589 22.4107ZM10.3712 16.4373L9.33082 19.5662C9.16196 20.0728 9.24348 20.6124 9.55404 21.0462C9.86363 21.48 10.3469 21.7295 10.8778 21.7295H19.589C20.1199 21.7295 20.6021 21.48 20.9128 21.0462C21.2233 20.6124 21.3048 20.0728 21.136 19.5662L20.0956 16.4373C19.2241 13.8179 19.3686 10.9899 20.5032 8.4734L21.1097 7.12925C21.5464 6.1617 21.1621 5.0039 20.2353 4.49437L18.8776 3.74709C18.077 3.30649 17.4665 2.12442 16.9754 1.1743C16.889 1.00738 16.8076 0.850155 16.7338 0.714285L16.7163 0.68226H13.7495L13.733 0.713315C13.6592 0.849185 13.5787 1.0064 13.4923 1.17236C13.0012 2.12345 12.3898 3.30649 11.5892 3.74709L10.2314 4.49437C9.30462 5.0039 8.9203 6.1617 9.35703 7.12925L9.96262 8.4734C11.0981 10.9899 11.2427 13.8179 10.3712 16.4373Z"
                fill="currentColor" />
            <path
                d="M12.7313 30C12.6459 30 12.5605 29.968 12.4945 29.903C12.3606 29.7719 12.3577 29.5555 12.4877 29.4206L14.9907 26.8362C15.1207 26.7003 15.3362 26.6984 15.4701 26.8294C15.604 26.9604 15.6069 27.1768 15.4759 27.3117L12.9739 29.8971C12.907 29.9651 12.8187 30 12.7313 30Z"
                fill="currentColor" />
            <path
                d="M17.7353 29.9999C17.647 29.9999 17.5596 29.9649 17.4927 29.897L14.9907 27.3116C14.8597 27.1767 14.8626 26.9603 14.9966 26.8293C15.1305 26.6982 15.345 26.7012 15.476 26.8361L17.9779 29.4205C18.1089 29.5554 18.106 29.7718 17.9721 29.9028C17.9061 29.9678 17.8207 29.9999 17.7353 29.9999Z"
                fill="currentColor" />
            <path
                d="M15.2334 27.4147C15.0461 27.4147 14.8947 27.2623 14.8947 27.074V22.0701C14.8947 21.8819 15.0461 21.7285 15.2334 21.7285C15.4207 21.7285 15.5721 21.8819 15.5721 22.0701V27.074C15.5721 27.2623 15.4207 27.4147 15.2334 27.4147Z"
                fill="currentColor" />
        </svg>
    </symbol>
    <symbol id="can">
        <svg viewBox="0 0 20 20" fill="none" xmlns="http://www.w3.org/2000/svg">
            <path
                d="M1.6665 5.00002H18.3332M8.33317 9.16669V13.3334M11.6665 9.16669V13.3334M3.33317 5.00002H16.6665L15.3498 16.85C15.3047 17.2578 15.1107 17.6347 14.805 17.9084C14.4994 18.1821 14.1035 18.3334 13.6932 18.3334H6.3065C5.8962 18.3334 5.5003 18.1821 5.19463 17.9084C4.88895 17.6347 4.69497 17.2578 4.64984 16.85L3.33317 5.00002ZM6.12067 2.62252C6.25546 2.33666 6.46876 2.09502 6.73567 1.92578C7.00259 1.75654 7.31212 1.66668 7.62817 1.66669H12.3715C12.6877 1.66653 12.9974 1.75631 13.2645 1.92556C13.5316 2.0948 13.745 2.33653 13.8798 2.62252L14.9998 5.00002H4.99984L6.12067 2.62252Z"
                stroke="currentColor"
                stroke-linecap="round"
                stroke-linejoin="round" />
        </svg>
    </symbol>
    <symbol id="caution">
        <svg viewBox="0 0 16 16" fill="none" xmlns="http://www.w3.org/2000/svg">
            <path
                d="M7.508 3.6H8.468V9.24H7.508V3.6ZM7.976 12.12C7.768 12.12 7.604 12.06 7.484 11.94C7.372 11.812 7.316 11.66 7.316 11.484C7.316 11.3 7.372 11.144 7.484 11.016C7.596 10.888 7.76 10.824 7.976 10.824C8.192 10.824 8.356 10.888 8.468 11.016C8.588 11.144 8.648 11.3 8.648 11.484C8.648 11.66 8.588 11.812 8.468 11.94C8.348 12.06 8.184 12.12 7.976 12.12Z"
                fill="currentColor" />
        </svg>
    </symbol>
    <symbol id="close">
        <svg viewBox="0 0 30 30" fill="none" xmlns="http://www.w3.org/2000/svg">
            <path
                d="M14.9996 13.2331L21.1869 7.0459L22.9546 8.81366L16.7674 15.0009L22.9546 21.188L21.1869 22.9557L14.9996 16.7686L8.81245 22.9557L7.04468 21.188L13.2319 15.0009L7.04468 8.81366L8.81245 7.0459L14.9996 13.2331Z" 
                fill="currentColor" />
        </svg>
    </symbol>
    <symbol id="time">
        <svg viewBox="0 0 20 20" fill="none" xmlns="http://www.w3.org/2000/svg">
            <path
                d="M10.0003 2.5871C14.6028 2.5871 18.3337 6.31793 18.3337 10.9204C18.3337 15.5229 14.6028 19.2538 10.0003 19.2538C5.39783 19.2538 1.66699 15.5229 1.66699 10.9204C1.66699 6.31793 5.39783 2.5871 10.0003 2.5871ZM10.0003 4.25376C8.23222 4.25376 6.53652 4.95614 5.28628 6.20639C4.03604 7.45663 3.33366 9.15232 3.33366 10.9204C3.33366 12.6885 4.03604 14.3842 5.28628 15.6345C6.53652 16.8847 8.23222 17.5871 10.0003 17.5871C11.7684 17.5871 13.4641 16.8847 14.7144 15.6345C15.9646 14.3842 16.667 12.6885 16.667 10.9204C16.667 9.15232 15.9646 7.45663 14.7144 6.20639C13.4641 4.95614 11.7684 4.25376 10.0003 4.25376ZM10.0003 5.92043C10.2044 5.92046 10.4014 5.99539 10.554 6.13103C10.7065 6.26666 10.8039 6.45355 10.8278 6.65626L10.8337 6.75376V10.5754L13.0895 12.8313C13.2389 12.9812 13.3257 13.1825 13.3322 13.3941C13.3386 13.6057 13.2643 13.8119 13.1243 13.9707C12.9843 14.1295 12.789 14.229 12.5783 14.2491C12.3675 14.2692 12.157 14.2083 11.9895 14.0788L11.9112 14.0096L9.41116 11.5096C9.28164 11.38 9.19846 11.2113 9.17449 11.0296L9.16699 10.9204V6.75376C9.16699 6.53275 9.25479 6.32079 9.41107 6.16451C9.56735 6.00823 9.77931 5.92043 10.0003 5.92043Z"
                fill="currentColor" />
        </svg>
    </symbol>
    <symbol id="spinner">
        <svg viewBox="0 0 24 24" fill="none" xmlns="http://www.w3.org/2000/svg">
            <path
                d="M12 21C10.5316 20.9987 9.08575 20.6382 7.78865 19.9498C6.49156 19.2614 5.38261 18.2661 4.55853 17.0507C3.73446 15.8353 3.22029 14.4368 3.06088 12.977C2.90147 11.5172 3.10167 10.0407 3.644 8.67604C4.18634 7.31142 5.05434 6.10024 6.17229 5.14813C7.29024 4.19603 8.62417 3.53194 10.0577 3.21378C11.4913 2.89563 12.9809 2.93307 14.3967 3.32286C15.8124 3.71264 17.1113 4.44292 18.18 5.45C18.3205 5.59062 18.3993 5.78125 18.3993 5.98C18.3993 6.17875 18.3205 6.36937 18.18 6.51C18.1111 6.58075 18.0286 6.63699 17.9376 6.67539C17.8466 6.71378 17.7488 6.73357 17.65 6.73357C17.5512 6.73357 17.4534 6.71378 17.3624 6.67539C17.2714 6.63699 17.189 6.58075 17.12 6.51C15.8591 5.33065 14.2303 4.62177 12.508 4.5027C10.7856 4.38362 9.07478 4.86163 7.66357 5.85624C6.25237 6.85085 5.22695 8.30132 4.75995 9.96345C4.29296 11.6256 4.41292 13.3979 5.09962 14.9819C5.78633 16.5659 6.99785 17.865 8.53021 18.6604C10.0626 19.4558 11.8222 19.6989 13.5128 19.3488C15.2034 18.9987 16.7218 18.0768 17.8123 16.7383C18.9028 15.3998 19.4988 13.7265 19.5 12C19.5 11.8011 19.579 11.6103 19.7197 11.4697C19.8603 11.329 20.0511 11.25 20.25 11.25C20.4489 11.25 20.6397 11.329 20.7803 11.4697C20.921 11.6103 21 11.8011 21 12C21 14.3869 20.0518 16.6761 18.364 18.364C16.6761 20.0518 14.387 21 12 21Z"
                fill="currentColor" />
        </svg>
    </symbol>
    <symbol id="sad">
        <svg viewBox="0 0 24 24" fill="none" xmlns="http://www.w3.org/2000/svg">
            <path
                d="M10.1128 13.6863C9.87569 13.9521 9.58519 14.165 9.26024 14.3109C8.93529 14.4569 8.58319 14.5327 8.22694 14.5334C7.87069 14.534 7.51834 14.4596 7.19284 14.3148C6.86734 14.1701 6.57599 13.9583 6.33789 13.6933"
                stroke="currentColor"
                stroke-width="1.2"
                stroke-linecap="square" />
            <path
                d="M17.6684 13.6863C17.4313 13.9521 17.1407 14.165 16.8158 14.3109C16.4908 14.4569 16.1387 14.5327 15.7825 14.5334C15.4263 14.534 15.0739 14.4596 14.7484 14.3148C14.4229 14.1701 14.1316 13.9583 13.8935 13.6933"
                stroke="currentColor"
                stroke-width="1.2"
                stroke-linecap="square" />
            <path
                d="M18.1938 10.4245C17.0281 10.0829 15.9528 9.48647 15.0457 8.67847"
                stroke="currentColor"
                stroke-width="1.2"
                stroke-linecap="square" />
            <path
                d="M5.80627 10.4246C6.97267 10.0828 8.04847 9.48595 8.95582 8.67725"
                stroke="currentColor"
                stroke-width="1.2"
                stroke-linecap="square" />
            <path
                d="M10.1111 18.6111H13.8889M21.4445 11.9999C21.4445 17.216 17.216 21.4444 12 21.4444C6.78395 21.4444 2.55554 17.216 2.55554 11.9999C2.55554 6.78388 6.78395 2.55542 12 2.55542C17.216 2.55542 21.4445 6.78388 21.4445 11.9999Z"
                stroke="currentColor"
                stroke-width="1.2"
                stroke-linecap="square"
                stroke-linejoin="round" />
        </svg>
    </symbol>
    <symbol id="smile">
        <svg viewBox="0 0 24 24" fill="none" xmlns="http://www.w3.org/2000/svg">
            <path
                d="M12 22C17.5228 22 22 17.5228 22 12C22 6.47715 17.5228 2 12 2C6.47715 2 2 6.47715 2 12C2 17.5228 6.47715 22 12 22Z"
                stroke="currentColor"
                stroke-width="1.5"
                stroke-linecap="round"
                stroke-linejoin="round" />
            <path
                d="M8 15C8.46574 15.621 9.06966 16.125 9.76393 16.4721C10.4582 16.8193 11.2238 17 12 17C12.7762 17 13.5418 16.8193 14.2361 16.4721C14.9303 16.125 15.5343 15.621 16 15M8.009 9H8M16 9H15.991"
                stroke="currentColor"
                stroke-width="1.5"
                stroke-linecap="round"
                stroke-linejoin="round" />
        </svg>
    </symbol>
    <symbol id="star">
        <svg viewBox="0 0 20 21" fill="none" xmlns="http://www.w3.org/2000/svg">
            <path
                d="M15.4075 18.375L13.9762 12.225L18.75 8.0875L12.4575 7.55L10 1.75L7.5425 7.54875L1.25 8.0875L6.02375 12.225L4.5925 18.375L10 15.1125L15.4075 18.375Z"
                fill="currentColor" />
        </svg>
    </symbol>
</svg>
