<svg width="500" height="141" viewBox="0 0 500 141" fill="none" xmlns="http://www.w3.org/2000/svg">
<path d="M22.8453 35.9545C29.9366 35.9545 35.0133 34.6993 38.0755 32.189C41.2182 29.6787 42.7896 25.7107 42.7896 20.2851C42.7896 15.3455 41.2182 11.7014 38.0755 9.35303C35.0133 6.92367 29.9366 5.70899 22.8453 5.70899H21.0322V35.9545H22.8453ZM21.0322 70.3299C21.0322 71.2207 21.3142 71.9495 21.8783 72.5164C22.4424 73.0832 23.1273 73.5286 23.9331 73.8525C24.8196 74.1764 25.7463 74.4194 26.7133 74.5813C27.6803 74.6623 28.607 74.7028 29.4934 74.7028C32.5555 74.7028 35.3356 74.4599 37.8337 73.974C40.3318 73.4881 42.4672 72.6378 44.2401 71.4232C46.0129 70.2085 47.3828 68.5889 48.3498 66.5644C49.3168 64.459 49.8003 61.8272 49.8003 58.669C49.8003 52.8386 47.7857 48.4252 43.7566 45.429C39.808 42.4328 34.3686 40.9347 27.4385 40.9347H21.0322V70.3299ZM40.6138 37.5336C43.1925 37.8575 45.7711 38.4649 48.3498 39.3556C50.9284 40.1654 53.2653 41.3396 55.3605 42.8782C57.4557 44.4168 59.1479 46.3603 60.4372 48.7086C61.7266 50.976 62.3712 53.6888 62.3712 56.847C62.3712 60.4101 61.6863 63.6087 60.3164 66.443C59.027 69.2772 57.1333 71.6661 54.6353 73.6096C52.2178 75.5531 49.2765 77.0512 45.8114 78.1039C42.3464 79.1566 38.5187 79.683 34.3283 79.683H15.2302C13.8603 79.683 12.2889 79.7235 10.5161 79.8044C8.82384 79.8854 7.21218 79.9664 5.6811 80.0474C3.90827 80.1284 2.09516 80.2093 0.241749 80.2903C0.161166 80.1284 0.120874 79.8854 0.120874 79.5615C0.0402914 79.3995 0 79.1971 0 78.9542C0 78.7112 0 78.5088 0 78.3468C0 77.2131 0.443206 76.5653 1.32962 76.4033C4.47235 75.7555 6.6481 75.1482 7.85684 74.5813C9.06558 73.9335 9.66996 72.7998 9.66996 71.1802V9.35303C9.66996 8.54324 9.50879 7.89541 9.18646 7.40954C8.94471 6.84269 8.5015 6.39731 7.85684 6.0734C7.21218 5.66851 6.36605 5.34459 5.31848 5.10165C4.2709 4.77774 2.94128 4.45382 1.32962 4.12991C0.443206 3.96795 0 3.19866 0 1.82202C0 1.41712 0.0402914 1.09321 0.120874 0.850272C0.120874 0.607339 0.161166 0.364404 0.241749 0.121466C2.65924 0.283422 5.23789 0.445379 7.97771 0.607339C10.7981 0.688317 13.1753 0.728806 15.1093 0.728806H29.9769C34.4895 0.728806 38.3172 1.25517 41.4599 2.30789C44.6833 3.27964 47.3022 4.65627 49.3168 6.4378C51.3314 8.21933 52.7818 10.2843 53.6683 12.6327C54.6353 14.9001 55.1188 17.2889 55.1188 19.7993C55.1188 21.6618 54.7561 23.4838 54.0309 25.2653C53.3056 27.0469 52.2984 28.7069 51.009 30.2455C49.8003 31.7841 48.3095 33.1608 46.5367 34.3754C44.7638 35.5901 42.7896 36.5214 40.6138 37.1692V37.5336Z" fill="#674D33"/>
<path d="M165.919 5.70899V36.8048H184.775C186.387 36.8048 187.515 36.0355 188.16 34.4969C188.885 32.8773 189.449 30.9338 189.852 28.6664C190.094 27.6137 190.819 27.0874 192.028 27.0874C192.27 27.0874 192.592 27.1278 192.995 27.2088C193.398 27.2898 193.72 27.3708 193.962 27.4518C193.801 29.2333 193.64 31.2578 193.478 33.5252C193.398 35.7926 193.358 37.7765 193.358 39.4771C193.358 40.8537 193.398 42.5543 193.478 44.5787C193.559 46.5222 193.72 48.7491 193.962 51.2595C193.317 51.4214 192.713 51.5024 192.149 51.5024C190.86 51.5024 190.094 50.976 189.852 49.9233C189.449 47.6559 188.885 45.7529 188.16 44.2143C187.515 42.5948 186.387 41.785 184.775 41.785H165.919V70.4514C165.919 72.152 167.007 73.2857 169.183 73.8525C171.358 74.4194 174.944 74.7028 179.941 74.7028H186.589C188.926 74.7028 190.94 74.3789 192.632 73.731C194.405 73.0022 195.936 72.071 197.226 70.9373C198.595 69.7226 199.804 68.3055 200.852 66.6859C201.899 65.0663 202.907 63.2848 203.874 61.3413C204.115 60.7745 204.72 60.491 205.687 60.491C206.09 60.491 206.493 60.6125 206.896 60.8554C207.379 61.0984 207.822 61.3413 208.225 61.5842C207.5 63.1228 206.855 64.9854 206.291 67.1718C205.808 69.2772 205.324 71.3017 204.841 73.2452C204.357 75.1887 203.833 76.8487 203.269 78.2254C202.786 79.602 202.141 80.2903 201.335 80.2903C200.691 80.2903 199.764 80.2498 198.555 80.1689C197.346 80.0879 196.017 80.0069 194.566 79.9259C193.196 79.9259 191.786 79.8854 190.336 79.8044C188.885 79.7235 187.636 79.683 186.589 79.683H160.117C157.78 79.683 155.282 79.7235 152.623 79.8044C149.964 79.9664 147.425 80.1284 145.008 80.2903C144.847 79.4805 144.766 78.8327 144.766 78.3468C144.766 77.2131 145.169 76.5653 145.975 76.4033C149.037 75.8365 151.213 75.2291 152.502 74.5813C153.872 73.9335 154.557 72.7998 154.557 71.1802V9.35303C154.557 7.73346 153.953 6.64025 152.744 6.0734C151.616 5.42557 149.359 4.77774 145.975 4.12991C145.169 3.96795 144.766 3.27963 144.766 2.06495C144.766 1.66006 144.766 1.33614 144.766 1.09321C144.847 0.769297 144.927 0.445382 145.008 0.121466C148.473 0.364404 151.374 0.526362 153.711 0.607339C156.048 0.688317 158.143 0.728806 159.996 0.728806H183.808C187.435 0.728806 190.577 0.607337 193.237 0.364399C195.896 0.121466 197.669 0 198.555 0C199.603 0 200.288 0.688317 200.61 2.06495C201.013 3.36061 201.335 4.9397 201.577 6.8022C201.819 8.66471 202.101 10.6487 202.423 12.7541C202.746 14.8596 203.35 16.6411 204.236 18.0987C203.592 18.5846 202.866 18.8275 202.061 18.8275C201.013 18.8275 200.328 18.4631 200.006 17.7343C199.039 15.6289 198.112 13.8473 197.226 12.3897C196.339 10.8511 195.292 9.59597 194.083 8.62422C192.955 7.65248 191.544 6.92367 189.852 6.4378C188.241 5.95193 186.226 5.70899 183.808 5.70899H165.919Z" fill="#674D33"/>
<path d="M306.311 74.7028H333.991C336.65 74.7028 338.826 74.4194 340.518 73.8525C342.211 73.2047 343.621 72.3139 344.749 71.1802C345.958 70.0465 346.925 68.6294 347.65 66.9288C348.456 65.1473 349.262 63.0824 350.068 60.734C350.229 60.0861 350.551 59.6408 351.035 59.3978C351.518 59.0739 351.921 58.912 352.243 58.912C353.13 58.912 353.936 59.1549 354.661 59.6408C353.936 63.2038 353.371 66.6049 352.969 69.8441C352.566 73.0832 352.284 75.7555 352.122 77.861C352.042 78.7517 351.76 79.3996 351.276 79.8044C350.793 80.2093 350.188 80.4118 349.463 80.4118C347.932 80.4118 346.038 80.2903 343.782 80.0474C341.606 79.8044 339.229 79.683 336.65 79.683H289.872C289.872 78.8732 290.033 78.1849 290.356 77.618L336.288 5.70899H309.333C306.512 5.70899 304.216 5.87095 302.443 6.19487C300.751 6.51878 299.341 7.12612 298.212 8.01688C297.084 8.90765 296.198 10.1628 295.553 11.7824C294.909 13.402 294.344 15.5479 293.861 18.2202C293.7 18.868 293.377 19.3539 292.894 19.6778C292.491 19.9207 292.007 20.0422 291.443 20.0422C291.041 20.0422 290.597 19.9612 290.114 19.7993C289.711 19.6373 289.348 19.4754 289.026 19.3134C289.59 15.9123 289.993 12.7541 290.235 9.8389C290.557 6.84269 290.799 4.41333 290.96 2.55082C291.041 0.931252 291.887 0.121466 293.498 0.121466C295.029 0.121466 296.762 0.242935 298.696 0.485873C300.63 0.647828 302.886 0.728806 305.465 0.728806H352.002C352.002 1.78153 351.84 2.59131 351.518 3.15816L306.311 74.7028Z" fill="#674D33"/>
<path d="M457.694 5.70899V36.8048H476.55C478.162 36.8048 479.29 36.0355 479.935 34.4969C480.66 32.8773 481.224 30.9338 481.627 28.6664C481.869 27.6137 482.594 27.0874 483.803 27.0874C484.045 27.0874 484.367 27.1278 484.77 27.2088C485.173 27.2898 485.495 27.3708 485.737 27.4518C485.576 29.2333 485.415 31.2578 485.253 33.5252C485.173 35.7926 485.132 37.7765 485.132 39.4771C485.132 40.8537 485.173 42.5543 485.253 44.5787C485.334 46.5222 485.495 48.7491 485.737 51.2595C485.092 51.4214 484.488 51.5024 483.924 51.5024C482.634 51.5024 481.869 50.976 481.627 49.9233C481.224 47.6559 480.66 45.7529 479.935 44.2143C479.29 42.5948 478.162 41.785 476.55 41.785H457.694V70.4514C457.694 72.152 458.782 73.2857 460.958 73.8525C463.133 74.4194 466.719 74.7028 471.715 74.7028H478.363C480.7 74.7028 482.715 74.3789 484.407 73.731C486.18 73.0022 487.711 72.071 489 70.9373C490.37 69.7226 491.579 68.3055 492.627 66.6859C493.674 65.0663 494.682 63.2848 495.649 61.3413C495.89 60.7745 496.495 60.491 497.462 60.491C497.865 60.491 498.267 60.6125 498.67 60.8554C499.154 61.0984 499.597 61.3413 500 61.5842C499.275 63.1228 498.63 64.9854 498.066 67.1718C497.583 69.2772 497.099 71.3017 496.616 73.2452C496.132 75.1887 495.608 76.8487 495.044 78.2254C494.561 79.602 493.916 80.2903 493.11 80.2903C492.466 80.2903 491.539 80.2498 490.33 80.1689C489.121 80.0879 487.792 80.0069 486.341 79.9259C484.971 79.9259 483.561 79.8854 482.111 79.8044C480.66 79.7235 479.411 79.683 478.363 79.683H451.892C449.555 79.683 447.057 79.7235 444.398 79.8044C441.739 79.9664 439.2 80.1284 436.783 80.2903C436.622 79.4805 436.541 78.8327 436.541 78.3468C436.541 77.2131 436.944 76.5653 437.75 76.4033C440.812 75.8365 442.988 75.2291 444.277 74.5813C445.647 73.9335 446.332 72.7998 446.332 71.1802V9.35303C446.332 7.73346 445.727 6.64025 444.519 6.0734C443.391 5.42557 441.134 4.77774 437.75 4.12991C436.944 3.96795 436.541 3.27963 436.541 2.06495C436.541 1.66006 436.541 1.33614 436.541 1.09321C436.622 0.769297 436.702 0.445382 436.783 0.121466C440.248 0.364404 443.149 0.526362 445.486 0.607339C447.823 0.688317 449.918 0.728806 451.771 0.728806H475.583C479.21 0.728806 482.352 0.607337 485.012 0.364399C487.671 0.121466 489.444 0 490.33 0C491.378 0 492.063 0.688317 492.385 2.06495C492.788 3.36061 493.11 4.9397 493.352 6.8022C493.594 8.66471 493.876 10.6487 494.198 12.7541C494.52 14.8596 495.125 16.6411 496.011 18.0987C495.367 18.5846 494.641 18.8275 493.835 18.8275C492.788 18.8275 492.103 18.4631 491.781 17.7343C490.814 15.6289 489.887 13.8473 489 12.3897C488.114 10.8511 487.066 9.59597 485.858 8.62422C484.73 7.65248 483.319 6.92367 481.627 6.4378C480.015 5.95193 478.001 5.70899 475.583 5.70899H457.694Z" fill="#674D33"/>
<path d="M163.694 134.684C164.307 135.882 165.209 136.805 166.402 137.453C167.595 138.069 168.852 138.376 170.173 138.376C170.786 138.376 171.398 138.279 172.011 138.085C172.623 137.89 173.171 137.615 173.654 137.259C174.138 136.902 174.525 136.481 174.815 135.996C175.137 135.477 175.298 134.894 175.298 134.246C175.298 133.21 174.96 132.432 174.283 131.914C173.638 131.396 172.833 130.991 171.866 130.7C170.899 130.408 169.835 130.165 168.674 129.971C167.514 129.744 166.45 129.42 165.483 128.999C164.516 128.545 163.694 127.93 163.018 127.153C162.373 126.375 162.051 125.274 162.051 123.849C162.051 122.747 162.276 121.792 162.727 120.982C163.179 120.172 163.759 119.508 164.468 118.99C165.209 118.439 166.031 118.034 166.934 117.775C167.836 117.516 168.755 117.387 169.69 117.387C171.527 117.387 173.107 117.727 174.428 118.407C175.782 119.087 176.829 120.156 177.571 121.614L174.96 123.168C174.412 122.132 173.719 121.355 172.881 120.836C172.075 120.286 171.011 120.01 169.69 120.01C169.174 120.01 168.626 120.091 168.046 120.253C167.498 120.415 166.998 120.642 166.547 120.933C166.096 121.225 165.709 121.598 165.387 122.051C165.097 122.504 164.952 123.023 164.952 123.606C164.952 124.61 165.274 125.355 165.919 125.841C166.595 126.327 167.417 126.715 168.384 127.007C169.351 127.266 170.415 127.493 171.575 127.687C172.736 127.881 173.8 128.205 174.767 128.659C175.734 129.08 176.539 129.712 177.184 130.554C177.861 131.364 178.199 132.53 178.199 134.052C178.199 135.218 177.974 136.238 177.522 137.113C177.103 137.955 176.507 138.668 175.734 139.251C174.992 139.834 174.138 140.271 173.171 140.563C172.204 140.854 171.189 141 170.125 141C168.191 141 166.418 140.627 164.806 139.882C163.227 139.137 162.002 137.988 161.132 136.433L163.694 134.684Z" fill="#674D33"/>
<path d="M203.863 120.593H197.48V135.218C197.48 136.222 197.754 137 198.302 137.55C198.85 138.101 199.608 138.376 200.575 138.376C201.123 138.376 201.671 138.312 202.219 138.182C202.799 138.02 203.347 137.826 203.863 137.599L204.104 140.223C203.556 140.417 202.928 140.595 202.219 140.757C201.509 140.919 200.881 141 200.333 141C199.302 141 198.415 140.838 197.674 140.514C196.932 140.223 196.336 139.818 195.885 139.299C195.434 138.781 195.095 138.182 194.869 137.502C194.676 136.789 194.579 136.028 194.579 135.218V120.593H189.744V117.97H194.579V111.508H197.48V117.97H203.863V120.593Z" fill="#674D33"/>
<path d="M236.644 134.101C236.644 134.522 236.66 135.04 236.692 135.655C236.725 136.238 236.741 136.838 236.741 137.453C236.773 138.069 236.805 138.652 236.837 139.202C236.87 139.721 236.886 140.125 236.886 140.417H233.985C233.953 139.575 233.92 138.765 233.888 137.988C233.888 137.21 233.856 136.708 233.791 136.481H233.646C233.066 137.712 232.099 138.781 230.745 139.688C229.392 140.563 227.812 141 226.007 141C224.267 141 222.832 140.725 221.704 140.174C220.608 139.623 219.738 138.911 219.093 138.036C218.481 137.129 218.062 136.093 217.836 134.927C217.61 133.761 217.498 132.562 217.498 131.331V117.97H220.399V131.185C220.399 132.092 220.479 132.983 220.64 133.858C220.801 134.7 221.075 135.461 221.462 136.141C221.881 136.821 222.445 137.372 223.154 137.793C223.896 138.182 224.847 138.376 226.007 138.376C227.071 138.376 228.07 138.198 229.005 137.842C229.972 137.453 230.794 136.886 231.471 136.141C232.18 135.364 232.728 134.408 233.115 133.275C233.534 132.109 233.743 130.748 233.743 129.193V117.97H236.644V134.101Z" fill="#674D33"/>
<path d="M272.842 136.481H272.745C272.294 137.259 271.73 137.939 271.053 138.522C270.376 139.073 269.635 139.542 268.829 139.931C268.055 140.287 267.233 140.547 266.363 140.708C265.493 140.903 264.638 141 263.8 141C262.092 141 260.513 140.708 259.062 140.125C257.612 139.542 256.371 138.733 255.339 137.696C254.308 136.627 253.502 135.38 252.922 133.955C252.341 132.497 252.051 130.91 252.051 129.193C252.051 127.477 252.341 125.906 252.922 124.48C253.502 123.023 254.308 121.776 255.339 120.739C256.371 119.67 257.612 118.844 259.062 118.261C260.513 117.678 262.092 117.387 263.8 117.387C264.638 117.387 265.493 117.484 266.363 117.678C267.233 117.84 268.055 118.115 268.829 118.504C269.635 118.86 270.376 119.33 271.053 119.913C271.73 120.464 272.294 121.128 272.745 121.905H272.842V103.685H275.743V140.417H272.842V136.481ZM273.132 129.193C273.132 127.93 272.89 126.748 272.407 125.646C271.923 124.513 271.262 123.541 270.424 122.731C269.586 121.889 268.603 121.225 267.475 120.739C266.347 120.253 265.122 120.01 263.8 120.01C262.447 120.01 261.222 120.253 260.126 120.739C259.03 121.225 258.095 121.889 257.322 122.731C256.548 123.541 255.952 124.513 255.533 125.646C255.146 126.748 254.952 127.93 254.952 129.193C254.952 130.457 255.146 131.655 255.533 132.789C255.952 133.89 256.548 134.862 257.322 135.704C258.095 136.514 259.03 137.162 260.126 137.647C261.222 138.133 262.447 138.376 263.8 138.376C265.122 138.376 266.347 138.133 267.475 137.647C268.603 137.162 269.586 136.514 270.424 135.704C271.262 134.862 271.923 133.89 272.407 132.789C272.89 131.655 273.132 130.457 273.132 129.193Z" fill="#674D33"/>
<path d="M292.1 117.97H295.001V140.417H292.1V117.97ZM291.374 109.078C291.374 108.463 291.584 107.945 292.003 107.523C292.422 107.102 292.938 106.892 293.55 106.892C294.163 106.892 294.678 107.102 295.097 107.523C295.516 107.945 295.726 108.463 295.726 109.078C295.726 109.694 295.516 110.212 295.097 110.633C294.678 111.054 294.163 111.265 293.55 111.265C292.938 111.265 292.422 111.054 292.003 110.633C291.584 110.212 291.374 109.694 291.374 109.078Z" fill="#674D33"/>
<path d="M310.677 129.193C310.677 127.477 310.967 125.906 311.548 124.48C312.128 123.023 312.934 121.776 313.965 120.739C314.997 119.67 316.238 118.844 317.688 118.261C319.139 117.678 320.718 117.387 322.426 117.387C324.135 117.387 325.698 117.678 327.116 118.261C328.567 118.844 329.808 119.67 330.839 120.739C331.903 121.776 332.725 123.023 333.305 124.48C333.885 125.906 334.175 127.477 334.175 129.193C334.175 130.91 333.885 132.497 333.305 133.955C332.725 135.38 331.903 136.627 330.839 137.696C329.808 138.733 328.567 139.542 327.116 140.125C325.698 140.708 324.135 141 322.426 141C320.718 141 319.139 140.708 317.688 140.125C316.238 139.542 314.997 138.733 313.965 137.696C312.934 136.627 312.128 135.38 311.548 133.955C310.967 132.497 310.677 130.91 310.677 129.193ZM313.578 129.193C313.578 130.457 313.772 131.655 314.159 132.789C314.578 133.89 315.174 134.862 315.948 135.704C316.721 136.514 317.656 137.162 318.752 137.647C319.848 138.133 321.073 138.376 322.426 138.376C323.78 138.376 325.005 138.133 326.101 137.647C327.197 137.162 328.132 136.514 328.905 135.704C329.679 134.862 330.259 133.89 330.646 132.789C331.065 131.655 331.274 130.457 331.274 129.193C331.274 127.93 331.065 126.748 330.646 125.646C330.259 124.513 329.679 123.541 328.905 122.731C328.132 121.889 327.197 121.225 326.101 120.739C325.005 120.253 323.78 120.01 322.426 120.01C321.073 120.01 319.848 120.253 318.752 120.739C317.656 121.225 316.721 121.889 315.948 122.731C315.174 123.541 314.578 124.513 314.159 125.646C313.772 126.748 313.578 127.93 313.578 129.193Z" fill="#674D33"/>
</svg>
