<svg width="500" height="140" viewBox="0 0 500 140" fill="none" xmlns="http://www.w3.org/2000/svg">
<path d="M22.8453 35.6995C29.9366 35.6995 35.0133 34.4533 38.0755 31.9607C41.2182 29.4682 42.7896 25.5284 42.7896 20.1413C42.7896 15.2366 41.2182 11.6184 38.0755 9.28669C35.0133 6.87457 29.9366 5.6685 22.8453 5.6685H21.0322V35.6995H22.8453ZM21.0322 69.8312C21.0322 70.7156 21.3142 71.4392 21.8783 72.0021C22.4424 72.5649 23.1273 73.0071 23.9331 73.3287C24.8196 73.6504 25.7463 73.8916 26.7133 74.0524C27.6803 74.1328 28.607 74.173 29.4934 74.173C32.5555 74.173 35.3356 73.9318 37.8337 73.4493C40.3318 72.9669 42.4672 72.1227 44.2401 70.9166C46.0129 69.7106 47.3828 68.1025 48.3498 66.0924C49.3168 64.0018 49.8003 61.3887 49.8003 58.2529C49.8003 52.4638 47.7857 48.0818 43.7566 45.1068C39.808 42.1319 34.3686 40.6444 27.4385 40.6444H21.0322V69.8312ZM40.6138 37.2674C43.1925 37.589 45.7711 38.1921 48.3498 39.0765C50.9284 39.8805 53.2653 41.0464 55.3605 42.5741C57.4557 44.1018 59.1479 46.0315 60.4372 48.3632C61.7266 50.6145 62.3712 53.3081 62.3712 56.4438C62.3712 59.9816 61.6863 63.1576 60.3164 65.9717C59.027 68.7859 57.1333 71.1578 54.6353 73.0875C52.2178 75.0172 49.2765 76.5047 45.8114 77.55C42.3464 78.5952 38.5187 79.1179 34.3283 79.1179H15.2302C13.8603 79.1179 12.2889 79.1581 10.5161 79.2385C8.82384 79.3189 7.21218 79.3993 5.6811 79.4797C3.90827 79.5601 2.09516 79.6405 0.241749 79.7209C0.161166 79.5601 0.120874 79.3189 0.120874 78.9972C0.0402914 78.8364 0 78.6354 0 78.3942C0 78.153 0 77.952 0 77.7912C0 76.6655 0.443206 76.0223 1.32962 75.8615C4.47235 75.2182 6.6481 74.6152 7.85684 74.0524C9.06558 73.4091 9.66996 72.2835 9.66996 70.6754V9.28669C9.66996 8.48265 9.50879 7.83942 9.18646 7.35699C8.94471 6.79416 8.5015 6.35194 7.85684 6.03033C7.21218 5.6283 6.36605 5.30669 5.31848 5.06547C4.2709 4.74385 2.94128 4.42224 1.32962 4.10062C0.443206 3.93981 0 3.17597 0 1.8091C0 1.40707 0.0402914 1.08546 0.120874 0.844242C0.120874 0.603032 0.161166 0.36182 0.241749 0.120605C2.65924 0.281411 5.23789 0.44222 7.97771 0.603032C10.7981 0.683435 13.1753 0.723637 15.1093 0.723637H29.9769C34.4895 0.723637 38.3172 1.24627 41.4599 2.29152C44.6833 3.25638 47.3022 4.62325 49.3168 6.39214C51.3314 8.16104 52.7818 10.2113 53.6683 12.5431C54.6353 14.7944 55.1188 17.1663 55.1188 19.6589C55.1188 21.5082 54.7561 23.3173 54.0309 25.0861C53.3056 26.855 52.2984 28.5033 51.009 30.031C49.8003 31.5587 48.3095 32.9256 46.5367 34.1316C44.7638 35.3377 42.7896 36.2624 40.6138 36.9056V37.2674Z" fill="white"/>
<path d="M165.919 5.6685V36.5438H184.775C186.387 36.5438 187.515 35.7799 188.16 34.2522C188.885 32.6442 189.449 30.7144 189.852 28.4631C190.094 27.4179 190.819 26.8952 192.028 26.8952C192.27 26.8952 192.592 26.9354 192.995 27.0159C193.398 27.0963 193.72 27.1767 193.962 27.2571C193.801 29.026 193.64 31.0361 193.478 33.2874C193.398 35.5387 193.358 37.5086 193.358 39.1971C193.358 40.564 193.398 42.2525 193.478 44.2626C193.559 46.1923 193.72 48.4034 193.962 50.8959C193.317 51.0567 192.713 51.1371 192.149 51.1371C190.86 51.1371 190.094 50.6145 189.852 49.5693C189.449 47.3179 188.885 45.4284 188.16 43.9008C187.515 42.2927 186.387 41.4886 184.775 41.4886H165.919V69.9518C165.919 71.6402 167.007 72.7659 169.183 73.3287C171.358 73.8916 174.944 74.173 179.941 74.173H186.589C188.926 74.173 190.94 73.8514 192.632 73.2081C194.405 72.4845 195.936 71.5598 197.226 70.4342C198.595 69.2281 199.804 67.821 200.852 66.213C201.899 64.6049 202.907 62.836 203.874 60.9063C204.115 60.3434 204.72 60.062 205.687 60.062C206.09 60.062 206.493 60.1826 206.896 60.4238C207.379 60.6651 207.822 60.9063 208.225 61.1475C207.5 62.6752 206.855 64.5245 206.291 66.6954C205.808 68.7859 205.324 70.796 204.841 72.7257C204.357 74.6554 203.833 76.3037 203.269 77.6706C202.786 79.0374 202.141 79.7209 201.335 79.7209C200.691 79.7209 199.764 79.6807 198.555 79.6003C197.346 79.5199 196.017 79.4395 194.566 79.3591C193.196 79.3591 191.786 79.3189 190.336 79.2385C188.885 79.1581 187.636 79.1179 186.589 79.1179H160.117C157.78 79.1179 155.282 79.1581 152.623 79.2385C149.964 79.3993 147.425 79.5601 145.008 79.7209C144.847 78.9168 144.766 78.2736 144.766 77.7912C144.766 76.6655 145.169 76.0223 145.975 75.8615C149.037 75.2986 151.213 74.6956 152.502 74.0524C153.872 73.4091 154.557 72.2835 154.557 70.6754V9.28669C154.557 7.67861 153.953 6.59315 152.744 6.03033C151.616 5.38709 149.359 4.74385 145.975 4.10062C145.169 3.93981 144.766 3.25637 144.766 2.05031C144.766 1.64828 144.766 1.32667 144.766 1.08546C144.847 0.763841 144.927 0.442223 145.008 0.120605C148.473 0.36182 151.374 0.522629 153.711 0.603032C156.048 0.683435 158.143 0.723637 159.996 0.723637H183.808C187.435 0.723637 190.577 0.603029 193.237 0.361815C195.896 0.120605 197.669 0 198.555 0C199.603 0 200.288 0.683435 200.61 2.05031C201.013 3.33678 201.335 4.90466 201.577 6.75396C201.819 8.60326 202.101 10.5732 202.423 12.6637C202.746 14.7542 203.35 16.5231 204.236 17.9704C203.592 18.4528 202.866 18.694 202.061 18.694C201.013 18.694 200.328 18.3322 200.006 17.6085C199.039 15.518 198.112 13.7491 197.226 12.3019C196.339 10.7742 195.292 9.52791 194.083 8.56306C192.955 7.59821 191.544 6.87457 189.852 6.39214C188.241 5.90972 186.226 5.6685 183.808 5.6685H165.919Z" fill="white"/>
<path d="M306.311 74.173H333.991C336.65 74.173 338.826 73.8916 340.518 73.3287C342.211 72.6855 343.621 71.8011 344.749 70.6754C345.958 69.5497 346.925 68.1427 347.65 66.4542C348.456 64.6853 349.262 62.635 350.068 60.3032C350.229 59.66 350.551 59.2178 351.035 58.9766C351.518 58.655 351.921 58.4941 352.243 58.4941C353.13 58.4941 353.936 58.7354 354.661 59.2178C353.936 62.7556 353.371 66.1326 352.969 69.3487C352.566 72.5649 352.284 75.2182 352.122 77.3088C352.042 78.1932 351.76 78.8364 351.276 79.2385C350.793 79.6405 350.188 79.8415 349.463 79.8415C347.932 79.8415 346.038 79.7209 343.782 79.4797C341.606 79.2385 339.229 79.1179 336.65 79.1179H289.872C289.872 78.3138 290.033 77.6304 290.356 77.0675L336.288 5.6685H309.333C306.512 5.6685 304.216 5.82931 302.443 6.15093C300.751 6.47255 299.341 7.07558 298.212 7.96003C297.084 8.84447 296.198 10.0907 295.553 11.6988C294.909 13.3069 294.344 15.4376 293.861 18.091C293.7 18.7342 293.377 19.2166 292.894 19.5383C292.491 19.7795 292.007 19.9001 291.443 19.9001C291.041 19.9001 290.597 19.8197 290.114 19.6589C289.711 19.498 289.348 19.3372 289.026 19.1764C289.59 15.7994 289.993 12.6637 290.235 9.76912C290.557 6.79416 290.799 4.38203 290.96 2.53273C291.041 0.924647 291.887 0.120605 293.498 0.120605C295.029 0.120605 296.762 0.241212 298.696 0.482427C300.63 0.643233 302.886 0.723637 305.465 0.723637H352.002C352.002 1.76889 351.84 2.57294 351.518 3.13576L306.311 74.173Z" fill="white"/>
<path d="M457.694 5.6685V36.5438H476.55C478.162 36.5438 479.29 35.7799 479.935 34.2522C480.66 32.6442 481.224 30.7144 481.627 28.4631C481.869 27.4179 482.594 26.8952 483.803 26.8952C484.045 26.8952 484.367 26.9354 484.77 27.0159C485.173 27.0963 485.495 27.1767 485.737 27.2571C485.576 29.026 485.415 31.0361 485.253 33.2874C485.173 35.5387 485.132 37.5086 485.132 39.1971C485.132 40.564 485.173 42.2525 485.253 44.2626C485.334 46.1923 485.495 48.4034 485.737 50.8959C485.092 51.0567 484.488 51.1371 483.924 51.1371C482.634 51.1371 481.869 50.6145 481.627 49.5693C481.224 47.3179 480.66 45.4284 479.935 43.9008C479.29 42.2927 478.162 41.4886 476.55 41.4886H457.694V69.9518C457.694 71.6402 458.782 72.7659 460.958 73.3287C463.133 73.8916 466.719 74.173 471.715 74.173H478.363C480.7 74.173 482.715 73.8514 484.407 73.2081C486.18 72.4845 487.711 71.5598 489 70.4342C490.37 69.2281 491.579 67.821 492.627 66.213C493.674 64.6049 494.682 62.836 495.649 60.9063C495.89 60.3434 496.495 60.062 497.462 60.062C497.865 60.062 498.267 60.1826 498.67 60.4238C499.154 60.6651 499.597 60.9063 500 61.1475C499.275 62.6752 498.63 64.5245 498.066 66.6954C497.583 68.7859 497.099 70.796 496.616 72.7257C496.132 74.6554 495.608 76.3037 495.044 77.6706C494.561 79.0374 493.916 79.7209 493.11 79.7209C492.466 79.7209 491.539 79.6807 490.33 79.6003C489.121 79.5199 487.792 79.4395 486.341 79.3591C484.971 79.3591 483.561 79.3189 482.111 79.2385C480.66 79.1581 479.411 79.1179 478.363 79.1179H451.892C449.555 79.1179 447.057 79.1581 444.398 79.2385C441.739 79.3993 439.2 79.5601 436.783 79.7209C436.622 78.9168 436.541 78.2736 436.541 77.7912C436.541 76.6655 436.944 76.0223 437.75 75.8615C440.812 75.2986 442.988 74.6956 444.277 74.0524C445.647 73.4091 446.332 72.2835 446.332 70.6754V9.28669C446.332 7.67861 445.727 6.59315 444.519 6.03033C443.391 5.38709 441.134 4.74385 437.75 4.10062C436.944 3.93981 436.541 3.25637 436.541 2.05031C436.541 1.64828 436.541 1.32667 436.541 1.08546C436.622 0.763841 436.702 0.442223 436.783 0.120605C440.248 0.36182 443.149 0.522629 445.486 0.603032C447.823 0.683435 449.918 0.723637 451.771 0.723637H475.583C479.21 0.723637 482.352 0.603029 485.012 0.361815C487.671 0.120605 489.444 0 490.33 0C491.378 0 492.063 0.683435 492.385 2.05031C492.788 3.33678 493.11 4.90466 493.352 6.75396C493.594 8.60326 493.876 10.5732 494.198 12.6637C494.52 14.7542 495.125 16.5231 496.011 17.9704C495.367 18.4528 494.641 18.694 493.835 18.694C492.788 18.694 492.103 18.3322 491.781 17.6085C490.814 15.518 489.887 13.7491 489 12.3019C488.114 10.7742 487.066 9.52791 485.858 8.56306C484.73 7.59821 483.319 6.87457 481.627 6.39214C480.015 5.90972 478.001 5.6685 475.583 5.6685H457.694Z" fill="white"/>
<path d="M163.694 133.728C164.307 134.918 165.209 135.835 166.402 136.478C167.595 137.089 168.852 137.395 170.173 137.395C170.786 137.395 171.398 137.298 172.011 137.105C172.623 136.912 173.171 136.639 173.654 136.285C174.138 135.932 174.525 135.513 174.815 135.031C175.137 134.516 175.298 133.938 175.298 133.294C175.298 132.265 174.96 131.493 174.283 130.979C173.638 130.464 172.833 130.062 171.866 129.773C170.899 129.483 169.835 129.242 168.674 129.049C167.514 128.824 166.45 128.502 165.483 128.084C164.516 127.634 163.694 127.023 163.018 126.251C162.373 125.479 162.051 124.385 162.051 122.97C162.051 121.877 162.276 120.928 162.727 120.124C163.179 119.32 163.759 118.661 164.468 118.146C165.209 117.599 166.031 117.197 166.934 116.94C167.836 116.683 168.755 116.554 169.69 116.554C171.527 116.554 173.107 116.892 174.428 117.567C175.782 118.243 176.829 119.304 177.571 120.751L174.96 122.295C174.412 121.266 173.719 120.494 172.881 119.979C172.075 119.433 171.011 119.159 169.69 119.159C169.174 119.159 168.626 119.24 168.046 119.4C167.498 119.561 166.998 119.786 166.547 120.076C166.096 120.365 165.709 120.735 165.387 121.185C165.097 121.636 164.952 122.15 164.952 122.729C164.952 123.726 165.274 124.466 165.919 124.948C166.595 125.431 167.417 125.817 168.384 126.106C169.351 126.363 170.415 126.589 171.575 126.782C172.736 126.974 173.8 127.296 174.767 127.746C175.734 128.164 176.539 128.792 177.184 129.628C177.861 130.432 178.199 131.59 178.199 133.101C178.199 134.259 177.974 135.272 177.522 136.141C177.103 136.977 176.507 137.684 175.734 138.263C174.992 138.842 174.138 139.276 173.171 139.566C172.204 139.855 171.189 140 170.125 140C168.191 140 166.418 139.63 164.806 138.89C163.227 138.151 162.002 137.009 161.132 135.465L163.694 133.728Z" fill="white"/>
<path d="M203.863 119.738H197.48V134.259C197.48 135.256 197.754 136.028 198.302 136.575C198.85 137.122 199.608 137.395 200.575 137.395C201.123 137.395 201.671 137.331 202.219 137.202C202.799 137.041 203.347 136.848 203.863 136.623L204.104 139.228C203.556 139.421 202.928 139.598 202.219 139.759C201.509 139.92 200.881 140 200.333 140C199.302 140 198.415 139.839 197.674 139.518C196.932 139.228 196.336 138.826 195.885 138.312C195.434 137.797 195.095 137.202 194.869 136.527C194.676 135.819 194.579 135.063 194.579 134.259V119.738H189.744V117.133H194.579V110.717H197.48V117.133H203.863V119.738Z" fill="white"/>
<path d="M236.644 133.15C236.644 133.568 236.66 134.082 236.692 134.693C236.725 135.272 236.741 135.867 236.741 136.478C236.773 137.089 236.805 137.668 236.837 138.215C236.87 138.73 236.886 139.132 236.886 139.421H233.985C233.953 138.585 233.92 137.781 233.888 137.009C233.888 136.237 233.856 135.739 233.791 135.513H233.646C233.066 136.736 232.099 137.797 230.745 138.697C229.392 139.566 227.812 140 226.007 140C224.267 140 222.832 139.727 221.704 139.18C220.608 138.633 219.738 137.926 219.093 137.057C218.481 136.157 218.062 135.128 217.836 133.97C217.61 132.812 217.498 131.622 217.498 130.4V117.133H220.399V130.255C220.399 131.156 220.479 132.04 220.64 132.908C220.801 133.745 221.075 134.5 221.462 135.176C221.881 135.851 222.445 136.398 223.154 136.816C223.896 137.202 224.847 137.395 226.007 137.395C227.071 137.395 228.07 137.218 229.005 136.864C229.972 136.478 230.794 135.915 231.471 135.176C232.18 134.404 232.728 133.455 233.115 132.329C233.534 131.172 233.743 129.821 233.743 128.277V117.133H236.644V133.15Z" fill="white"/>
<path d="M272.842 135.513H272.745C272.294 136.285 271.73 136.961 271.053 137.54C270.376 138.086 269.635 138.553 268.829 138.939C268.055 139.292 267.233 139.55 266.363 139.711C265.493 139.904 264.638 140 263.8 140C262.092 140 260.513 139.711 259.062 139.132C257.612 138.553 256.371 137.749 255.339 136.72C254.308 135.658 253.502 134.42 252.922 133.005C252.341 131.558 252.051 129.982 252.051 128.277C252.051 126.572 252.341 125.013 252.922 123.598C253.502 122.15 254.308 120.912 255.339 119.883C256.371 118.822 257.612 118.001 259.062 117.422C260.513 116.844 262.092 116.554 263.8 116.554C264.638 116.554 265.493 116.651 266.363 116.844C267.233 117.004 268.055 117.278 268.829 117.664C269.635 118.017 270.376 118.484 271.053 119.063C271.73 119.609 272.294 120.269 272.745 121.041H272.842V102.95H275.743V139.421H272.842V135.513ZM273.132 128.277C273.132 127.023 272.89 125.849 272.407 124.755C271.923 123.63 271.262 122.665 270.424 121.861C269.586 121.025 268.603 120.365 267.475 119.883C266.347 119.4 265.122 119.159 263.8 119.159C262.447 119.159 261.222 119.4 260.126 119.883C259.03 120.365 258.095 121.025 257.322 121.861C256.548 122.665 255.952 123.63 255.533 124.755C255.146 125.849 254.952 127.023 254.952 128.277C254.952 129.531 255.146 130.721 255.533 131.847C255.952 132.941 256.548 133.905 257.322 134.742C258.095 135.546 259.03 136.189 260.126 136.671C261.222 137.154 262.447 137.395 263.8 137.395C265.122 137.395 266.347 137.154 267.475 136.671C268.603 136.189 269.586 135.546 270.424 134.742C271.262 133.905 271.923 132.941 272.407 131.847C272.89 130.721 273.132 129.531 273.132 128.277Z" fill="white"/>
<path d="M292.1 117.133H295.001V139.421H292.1V117.133ZM291.374 108.305C291.374 107.694 291.584 107.179 292.003 106.761C292.422 106.343 292.938 106.134 293.55 106.134C294.163 106.134 294.678 106.343 295.097 106.761C295.516 107.179 295.726 107.694 295.726 108.305C295.726 108.916 295.516 109.43 295.097 109.848C294.678 110.266 294.163 110.476 293.55 110.476C292.938 110.476 292.422 110.266 292.003 109.848C291.584 109.43 291.374 108.916 291.374 108.305Z" fill="white"/>
<path d="M310.677 128.277C310.677 126.572 310.967 125.013 311.548 123.598C312.128 122.15 312.934 120.912 313.965 119.883C314.997 118.822 316.238 118.001 317.688 117.422C319.139 116.844 320.718 116.554 322.426 116.554C324.135 116.554 325.698 116.844 327.116 117.422C328.567 118.001 329.808 118.822 330.839 119.883C331.903 120.912 332.725 122.15 333.305 123.598C333.885 125.013 334.175 126.572 334.175 128.277C334.175 129.982 333.885 131.558 333.305 133.005C332.725 134.42 331.903 135.658 330.839 136.72C329.808 137.749 328.567 138.553 327.116 139.132C325.698 139.711 324.135 140 322.426 140C320.718 140 319.139 139.711 317.688 139.132C316.238 138.553 314.997 137.749 313.965 136.72C312.934 135.658 312.128 134.42 311.548 133.005C310.967 131.558 310.677 129.982 310.677 128.277ZM313.578 128.277C313.578 129.531 313.772 130.721 314.159 131.847C314.578 132.941 315.174 133.905 315.948 134.742C316.721 135.546 317.656 136.189 318.752 136.671C319.848 137.154 321.073 137.395 322.426 137.395C323.78 137.395 325.005 137.154 326.101 136.671C327.197 136.189 328.132 135.546 328.905 134.742C329.679 133.905 330.259 132.941 330.646 131.847C331.065 130.721 331.274 129.531 331.274 128.277C331.274 127.023 331.065 125.849 330.646 124.755C330.259 123.63 329.679 122.665 328.905 121.861C328.132 121.025 327.197 120.365 326.101 119.883C325.005 119.4 323.78 119.159 322.426 119.159C321.073 119.159 319.848 119.4 318.752 119.883C317.656 120.365 316.721 121.025 315.948 121.861C315.174 122.665 314.578 123.63 314.159 124.755C313.772 125.849 313.578 127.023 313.578 128.277Z" fill="white"/>
</svg>
