<svg width="323" height="93" viewBox="0 0 323 93" fill="none" xmlns="http://www.w3.org/2000/svg">
<path d="M14.5519 89.665C13.7695 90.8552 12.7971 91.7087 11.6348 92.2252C10.4948 92.7417 9.23182 93 7.84593 93C6.66122 93 5.58827 92.7979 4.62709 92.3936C3.6659 91.9894 2.83884 91.4279 2.1459 90.7093C1.45295 89.9681 0.916476 89.1035 0.536474 88.1153C0.178825 87.1047 0 85.993 0 84.7803C0 83.6124 0.190001 82.5345 0.570004 81.5463C0.950006 80.5581 1.48648 79.7047 2.17943 78.986C2.87237 78.2449 3.68826 77.6722 4.62709 77.268C5.56592 76.8413 6.60534 76.6279 7.74534 76.6279C8.93006 76.6279 9.96947 76.8413 10.8636 77.268C11.7801 77.6722 12.5401 78.2225 13.1436 78.9187C13.7695 79.5924 14.2389 80.3672 14.5519 81.2431C14.8648 82.119 15.0213 83.0061 15.0213 83.9044V85.3193H2.01178C2.01178 85.746 2.09001 86.2962 2.24648 86.97C2.42531 87.6212 2.73825 88.2613 3.18531 88.8901C3.63238 89.519 4.22473 90.058 4.96238 90.5071C5.72239 90.9563 6.69475 91.1809 7.87946 91.1809C8.9077 91.1809 9.90241 90.9338 10.8636 90.4398C11.8248 89.9457 12.5624 89.2719 13.0766 88.4185L14.5519 89.665ZM13.0095 83.5002C13.0095 82.804 12.8642 82.1527 12.5736 81.5463C12.3054 80.9399 11.9254 80.4121 11.4336 79.963C10.9642 79.4914 10.3942 79.1208 9.72359 78.8513C9.07535 78.5818 8.38241 78.447 7.64475 78.447C6.54945 78.447 5.63298 78.6716 4.89532 79.1208C4.18003 79.57 3.61002 80.0865 3.18531 80.6704C2.76061 81.2543 2.45884 81.827 2.28001 82.3885C2.10119 82.9275 2.01178 83.298 2.01178 83.5002H13.0095Z" fill="white"/>
<path d="M29.4948 84.1739L23.9624 77.0322H26.5442L30.836 82.9275L35.0942 77.0322H37.609L32.1436 84.1739L38.7825 92.5958H36.1672L30.7689 85.5551L25.4712 92.5958H23.0571L29.4948 84.1739Z" fill="white"/>
<path d="M60.6923 90.305C59.9323 91.2258 59.0717 91.9108 58.1105 92.3599C57.1493 92.7867 56.1099 93 54.9922 93C53.8075 93 52.7122 92.7979 51.7063 92.3936C50.7004 91.9894 49.8399 91.4279 49.1246 90.7093C48.4093 89.9681 47.8504 89.1035 47.4481 88.1153C47.0457 87.1047 46.8445 86.0042 46.8445 84.814C46.8445 83.6237 47.0457 82.5345 47.4481 81.5463C47.8504 80.5357 48.4093 79.671 49.1246 78.9523C49.8399 78.2112 50.7004 77.6385 51.7063 77.2343C52.7122 76.83 53.8075 76.6279 54.9922 76.6279C56.1322 76.6279 57.1828 76.8637 58.144 77.3354C59.1276 77.807 59.9993 78.4695 60.7593 79.3229L59.1499 80.5357C58.5687 79.8844 57.9317 79.3791 57.2387 79.0197C56.5458 78.6379 55.797 78.447 54.9922 78.447C54.0534 78.447 53.204 78.6155 52.444 78.9523C51.684 79.2892 51.0357 79.7496 50.4993 80.3335C49.9628 80.895 49.5493 81.5687 49.2587 82.3548C48.9904 83.1184 48.8563 83.9381 48.8563 84.814C48.8563 85.6898 48.9904 86.5208 49.2587 87.3068C49.5493 88.0704 49.9628 88.7442 50.4993 89.3281C51.0357 89.8895 51.684 90.3387 52.444 90.6756C53.204 91.0125 54.0534 91.1809 54.9922 91.1809C55.8417 91.1809 56.6128 90.99 57.3058 90.6082C58.0211 90.204 58.6358 89.6762 59.1499 89.0249L60.6923 90.305Z" fill="white"/>
<path d="M70.2296 67.1281H72.2414V92.5958H70.2296V67.1281Z" fill="white"/>
<path d="M97.0947 88.2164C97.0947 88.5084 97.1059 88.8677 97.1282 89.2944C97.1506 89.6986 97.1618 90.1141 97.1618 90.5408C97.1841 90.9675 97.2065 91.3718 97.2288 91.7536C97.2512 92.1129 97.2624 92.3936 97.2624 92.5958H95.2506C95.2282 92.0118 95.2059 91.4504 95.1835 90.9114C95.1835 90.3724 95.1612 90.0243 95.1165 89.8671H95.0159C94.6135 90.7205 93.9429 91.4616 93.0041 92.0904C92.0653 92.6968 90.97 93 89.7182 93C88.5111 93 87.5164 92.8091 86.734 92.4273C85.974 92.0455 85.3705 91.5514 84.9234 90.9451C84.4987 90.3162 84.2081 89.5976 84.0517 88.7891C83.8952 87.9806 83.817 87.1496 83.817 86.2962V77.0322H85.8287V86.1951C85.8287 86.824 85.8846 87.4416 85.9964 88.048C86.1082 88.6319 86.2982 89.1596 86.5664 89.6313C86.857 90.1029 87.2482 90.4847 87.7399 90.7766C88.2541 91.0461 88.9135 91.1809 89.7182 91.1809C90.4558 91.1809 91.1488 91.0574 91.797 90.8103C92.4676 90.5408 93.0376 90.1478 93.507 89.6313C93.9988 89.0923 94.3788 88.4297 94.647 87.6437C94.9376 86.8352 95.0829 85.892 95.0829 84.814V77.0322H97.0947V88.2164Z" fill="white"/>
<path d="M108.685 88.6206C109.109 89.4516 109.735 90.0917 110.562 90.5408C111.389 90.9675 112.261 91.1809 113.178 91.1809C113.602 91.1809 114.027 91.1135 114.452 90.9788C114.876 90.844 115.256 90.6531 115.592 90.4061C115.927 90.159 116.195 89.8671 116.396 89.5302C116.62 89.1709 116.732 88.7666 116.732 88.3175C116.732 87.5988 116.497 87.0598 116.028 86.7005C115.581 86.3411 115.022 86.0604 114.351 85.8583C113.681 85.6562 112.943 85.4877 112.138 85.353C111.334 85.1958 110.596 84.9712 109.925 84.6792C109.255 84.3648 108.685 83.9381 108.215 83.3991C107.768 82.8601 107.545 82.0965 107.545 81.1083C107.545 80.3448 107.701 79.6823 108.014 79.1208C108.327 78.5593 108.729 78.0989 109.221 77.7396C109.735 77.3578 110.305 77.0771 110.931 76.8974C111.557 76.7178 112.194 76.6279 112.842 76.6279C114.116 76.6279 115.212 76.8637 116.128 77.3354C117.067 77.807 117.794 78.5481 118.308 79.5587L116.497 80.6367C116.117 79.9181 115.636 79.3791 115.055 79.0197C114.496 78.6379 113.759 78.447 112.842 78.447C112.485 78.447 112.105 78.5032 111.702 78.6155C111.322 78.7278 110.976 78.885 110.663 79.0871C110.35 79.2892 110.082 79.5475 109.858 79.8619C109.657 80.1763 109.556 80.5357 109.556 80.9399C109.556 81.6361 109.78 82.1527 110.227 82.4895C110.696 82.8264 111.266 83.0959 111.937 83.298C112.608 83.4777 113.345 83.6349 114.15 83.7697C114.955 83.9044 115.692 84.129 116.363 84.4434C117.034 84.7354 117.592 85.1733 118.039 85.7572C118.509 86.3187 118.744 87.1272 118.744 88.1827C118.744 88.9912 118.587 89.6986 118.274 90.305C117.984 90.8889 117.57 91.383 117.034 91.7873C116.519 92.1915 115.927 92.4947 115.256 92.6968C114.586 92.8989 113.882 93 113.144 93C111.803 93 110.574 92.7417 109.456 92.2252C108.361 91.7087 107.511 90.9114 106.908 89.8334L108.685 88.6206Z" fill="white"/>
<path d="M129.298 77.0322H131.31V92.5958H129.298V77.0322ZM128.795 70.8674C128.795 70.4407 128.94 70.0813 129.231 69.7894C129.522 69.4974 129.879 69.3514 130.304 69.3514C130.729 69.3514 131.086 69.4974 131.377 69.7894C131.667 70.0813 131.813 70.4407 131.813 70.8674C131.813 71.2941 131.667 71.6534 131.377 71.9454C131.086 72.2373 130.729 72.3833 130.304 72.3833C129.879 72.3833 129.522 72.2373 129.231 71.9454C128.94 71.6534 128.795 71.2941 128.795 70.8674Z" fill="white"/>
<path d="M140.874 77.0322H143.154L148.317 90.4061L153.347 77.0322H155.392L149.29 92.5958H147.211L140.874 77.0322Z" fill="white"/>
<path d="M178.289 89.665C177.507 90.8552 176.534 91.7087 175.372 92.2252C174.232 92.7417 172.969 93 171.583 93C170.398 93 169.325 92.7979 168.364 92.3936C167.403 91.9894 166.576 91.4279 165.883 90.7093C165.19 89.9681 164.654 89.1035 164.274 88.1153C163.916 87.1047 163.737 85.993 163.737 84.7803C163.737 83.6124 163.927 82.5345 164.307 81.5463C164.687 80.5581 165.224 79.7047 165.917 78.986C166.61 78.2449 167.425 77.6722 168.364 77.268C169.303 76.8413 170.342 76.6279 171.483 76.6279C172.667 76.6279 173.707 76.8413 174.601 77.268C175.517 77.6722 176.277 78.2225 176.881 78.9187C177.507 79.5924 177.976 80.3672 178.289 81.2431C178.602 82.119 178.758 83.0061 178.758 83.9044V85.3193H165.749C165.749 85.746 165.827 86.2962 165.984 86.97C166.162 87.6212 166.475 88.2613 166.922 88.8901C167.37 89.519 167.962 90.058 168.7 90.5071C169.46 90.9563 170.432 91.1809 171.617 91.1809C172.645 91.1809 173.64 90.9338 174.601 90.4398C175.562 89.9457 176.3 89.2719 176.814 88.4185L178.289 89.665ZM176.747 83.5002C176.747 82.804 176.601 82.1527 176.311 81.5463C176.043 80.9399 175.663 80.4121 175.171 79.963C174.701 79.4914 174.131 79.1208 173.461 78.8513C172.813 78.5818 172.12 78.447 171.382 78.447C170.287 78.447 169.37 78.6716 168.632 79.1208C167.917 79.57 167.347 80.0865 166.922 80.6704C166.498 81.2543 166.196 81.827 166.017 82.3885C165.838 82.9275 165.749 83.298 165.749 83.5002H176.747Z" fill="white"/>
<path d="M204.054 88.6206C204.479 89.4516 205.105 90.0917 205.932 90.5408C206.759 90.9675 207.631 91.1809 208.547 91.1809C208.972 91.1809 209.397 91.1135 209.821 90.9788C210.246 90.844 210.626 90.6531 210.961 90.4061C211.297 90.159 211.565 89.8671 211.766 89.5302C211.99 89.1709 212.101 88.7666 212.101 88.3175C212.101 87.5988 211.867 87.0598 211.397 86.7005C210.95 86.3411 210.391 86.0604 209.721 85.8583C209.05 85.6562 208.312 85.4877 207.508 85.353C206.703 85.1958 205.965 84.9712 205.295 84.6792C204.624 84.3648 204.054 83.9381 203.585 83.3991C203.138 82.8601 202.914 82.0965 202.914 81.1083C202.914 80.3448 203.071 79.6823 203.384 79.1208C203.697 78.5593 204.099 78.0989 204.591 77.7396C205.105 77.3578 205.675 77.0771 206.301 76.8974C206.927 76.7178 207.564 76.6279 208.212 76.6279C209.486 76.6279 210.581 76.8637 211.498 77.3354C212.437 77.807 213.163 78.5481 213.677 79.5587L211.867 80.6367C211.487 79.9181 211.006 79.3791 210.425 79.0197C209.866 78.6379 209.128 78.447 208.212 78.447C207.854 78.447 207.474 78.5032 207.072 78.6155C206.692 78.7278 206.345 78.885 206.032 79.0871C205.719 79.2892 205.451 79.5475 205.228 79.8619C205.027 80.1763 204.926 80.5357 204.926 80.9399C204.926 81.6361 205.149 82.1527 205.597 82.4895C206.066 82.8264 206.636 83.0959 207.307 83.298C207.977 83.4777 208.715 83.6349 209.52 83.7697C210.324 83.9044 211.062 84.129 211.732 84.4434C212.403 84.7354 212.962 85.1733 213.409 85.7572C213.878 86.3187 214.113 87.1272 214.113 88.1827C214.113 88.9912 213.957 89.6986 213.644 90.305C213.353 90.8889 212.939 91.383 212.403 91.7873C211.889 92.1915 211.297 92.4947 210.626 92.6968C209.955 92.8989 209.251 93 208.514 93C207.172 93 205.943 92.7417 204.825 92.2252C203.73 91.7087 202.881 90.9114 202.277 89.8334L204.054 88.6206Z" fill="white"/>
<path d="M231.91 78.8513H227.484V88.9912C227.484 89.6874 227.674 90.2264 228.054 90.6082C228.434 90.99 228.959 91.1809 229.63 91.1809C230.01 91.1809 230.39 91.136 230.77 91.0461C231.172 90.9338 231.552 90.7991 231.91 90.6419L232.078 92.461C231.698 92.5958 231.262 92.7193 230.77 92.8316C230.278 92.9439 229.842 93 229.462 93C228.747 93 228.132 92.8877 227.618 92.6631C227.104 92.461 226.691 92.1803 226.378 91.8209C226.065 91.4616 225.83 91.0461 225.673 90.5745C225.539 90.0804 225.472 89.5527 225.472 88.9912V78.8513H222.119V77.0322H225.472V72.5517H227.484V77.0322H231.91V78.8513Z" fill="white"/>
<path d="M254.643 88.2164C254.643 88.5084 254.654 88.8677 254.677 89.2944C254.699 89.6986 254.71 90.1141 254.71 90.5408C254.733 90.9675 254.755 91.3718 254.777 91.7536C254.8 92.1129 254.811 92.3936 254.811 92.5958H252.799C252.777 92.0118 252.754 91.4504 252.732 90.9114C252.732 90.3724 252.71 90.0243 252.665 89.8671H252.564C252.162 90.7205 251.491 91.4616 250.553 92.0904C249.614 92.6968 248.519 93 247.267 93C246.06 93 245.065 92.8091 244.283 92.4273C243.523 92.0455 242.919 91.5514 242.472 90.9451C242.047 90.3162 241.757 89.5976 241.6 88.7891C241.444 87.9806 241.366 87.1496 241.366 86.2962V77.0322H243.377V86.1951C243.377 86.824 243.433 87.4416 243.545 88.048C243.657 88.6319 243.847 89.1596 244.115 89.6313C244.406 90.1029 244.797 90.4847 245.289 90.7766C245.803 91.0461 246.462 91.1809 247.267 91.1809C248.004 91.1809 248.697 91.0574 249.346 90.8103C250.016 90.5408 250.586 90.1478 251.056 89.6313C251.547 89.0923 251.927 88.4297 252.196 87.6437C252.486 86.8352 252.632 85.892 252.632 84.814V77.0322H254.643V88.2164Z" fill="white"/>
<path d="M279.746 89.8671H279.679C279.366 90.4061 278.975 90.8777 278.505 91.2819C278.036 91.6637 277.522 91.9894 276.963 92.2589C276.426 92.5059 275.856 92.6856 275.253 92.7979C274.649 92.9326 274.057 93 273.476 93C272.291 93 271.196 92.7979 270.19 92.3936C269.184 91.9894 268.323 91.4279 267.608 90.7093C266.893 89.9681 266.334 89.1035 265.932 88.1153C265.529 87.1047 265.328 86.0042 265.328 84.814C265.328 83.6237 265.529 82.5345 265.932 81.5463C266.334 80.5357 266.893 79.671 267.608 78.9523C268.323 78.2112 269.184 77.6385 270.19 77.2343C271.196 76.83 272.291 76.6279 273.476 76.6279C274.057 76.6279 274.649 76.6953 275.253 76.83C275.856 76.9423 276.426 77.1332 276.963 77.4027C277.522 77.6498 278.036 77.9754 278.505 78.3797C278.975 78.7615 279.366 79.2219 279.679 79.7608H279.746V67.1281H281.757V92.5958H279.746V89.8671ZM279.947 84.814C279.947 83.9381 279.779 83.1184 279.444 82.3548C279.109 81.5687 278.65 80.895 278.069 80.3335C277.488 79.7496 276.806 79.2892 276.024 78.9523C275.242 78.6155 274.392 78.447 273.476 78.447C272.537 78.447 271.687 78.6155 270.927 78.9523C270.167 79.2892 269.519 79.7496 268.983 80.3335C268.446 80.895 268.033 81.5687 267.742 82.3548C267.474 83.1184 267.34 83.9381 267.34 84.814C267.34 85.6898 267.474 86.5208 267.742 87.3068C268.033 88.0704 268.446 88.7442 268.983 89.3281C269.519 89.8895 270.167 90.3387 270.927 90.6756C271.687 91.0125 272.537 91.1809 273.476 91.1809C274.392 91.1809 275.242 91.0125 276.024 90.6756C276.806 90.3387 277.488 89.8895 278.069 89.3281C278.65 88.7442 279.109 88.0704 279.444 87.3068C279.779 86.5208 279.947 85.6898 279.947 84.814Z" fill="white"/>
<path d="M293.101 77.0322H295.112V92.5958H293.101V77.0322ZM292.598 70.8674C292.598 70.4407 292.743 70.0813 293.034 69.7894C293.324 69.4974 293.682 69.3514 294.107 69.3514C294.531 69.3514 294.889 69.4974 295.18 69.7894C295.47 70.0813 295.615 70.4407 295.615 70.8674C295.615 71.2941 295.47 71.6534 295.18 71.9454C294.889 72.2373 294.531 72.3833 294.107 72.3833C293.682 72.3833 293.324 72.2373 293.034 71.9454C292.743 71.6534 292.598 71.2941 292.598 70.8674Z" fill="white"/>
<path d="M305.984 84.814C305.984 83.6237 306.185 82.5345 306.587 81.5463C306.99 80.5357 307.549 79.671 308.264 78.9523C308.979 78.2112 309.84 77.6385 310.846 77.2343C311.852 76.83 312.947 76.6279 314.132 76.6279C315.316 76.6279 316.4 76.83 317.384 77.2343C318.39 77.6385 319.25 78.2112 319.966 78.9523C320.703 79.671 321.273 80.5357 321.676 81.5463C322.078 82.5345 322.279 83.6237 322.279 84.814C322.279 86.0042 322.078 87.1047 321.676 88.1153C321.273 89.1035 320.703 89.9681 319.966 90.7093C319.25 91.4279 318.39 91.9894 317.384 92.3936C316.4 92.7979 315.316 93 314.132 93C312.947 93 311.852 92.7979 310.846 92.3936C309.84 91.9894 308.979 91.4279 308.264 90.7093C307.549 89.9681 306.99 89.1035 306.587 88.1153C306.185 87.1047 305.984 86.0042 305.984 84.814ZM307.996 84.814C307.996 85.6898 308.13 86.5208 308.398 87.3068C308.689 88.0704 309.102 88.7442 309.639 89.3281C310.175 89.8895 310.823 90.3387 311.583 90.6756C312.343 91.0125 313.193 91.1809 314.132 91.1809C315.07 91.1809 315.92 91.0125 316.68 90.6756C317.44 90.3387 318.088 89.8895 318.625 89.3281C319.161 88.7442 319.563 88.0704 319.832 87.3068C320.122 86.5208 320.268 85.6898 320.268 84.814C320.268 83.9381 320.122 83.1184 319.832 82.3548C319.563 81.5687 319.161 80.895 318.625 80.3335C318.088 79.7496 317.44 79.2892 316.68 78.9523C315.92 78.6155 315.07 78.447 314.132 78.447C313.193 78.447 312.343 78.6155 311.583 78.9523C310.823 79.2892 310.175 79.7496 309.639 80.3335C309.102 80.895 308.689 81.5687 308.398 82.3548C308.13 83.1184 307.996 83.9381 307.996 84.814Z" fill="white"/>
<path d="M0.368268 4.81249H17.229C19.4602 4.81249 21.502 5.06627 23.3544 5.57384C25.2278 6.06026 26.8276 6.75816 28.1537 7.66755C29.5009 8.57695 30.5428 9.6661 31.2796 10.935C32.0163 12.2039 32.3847 13.5997 32.3847 15.1224C32.3847 16.2856 32.2689 17.3219 32.0373 18.2313C31.8058 19.1407 31.3953 19.9866 30.8059 20.7691C30.2166 21.5305 29.4272 22.2601 28.4379 22.958C27.4696 23.6348 26.2382 24.3327 24.7437 25.0517V25.1786C26.2382 25.4113 27.5854 25.8131 28.7852 26.3841C29.985 26.9551 31.0059 27.6847 31.8479 28.573C32.7109 29.4401 33.374 30.4658 33.8371 31.6501C34.3002 32.8133 34.5317 34.0928 34.5317 35.4886C34.5317 37.0747 34.1844 38.5657 33.4898 39.9615C32.8162 41.3362 31.8374 42.5416 30.5533 43.5779C29.2904 44.5931 27.7538 45.3967 25.9435 45.9889C24.1543 46.581 22.144 46.8771 19.9128 46.8771H0.368268V4.81249ZM7.40935 23.7511H16.3765C17.7868 23.7511 19.0392 23.5502 20.1338 23.1484C21.2284 22.7465 22.1546 22.1967 22.9124 21.4988C23.6701 20.7797 24.2385 19.9338 24.6174 18.9609C25.0173 17.9669 25.2173 16.8989 25.2173 15.7569C25.2173 14.5303 24.9857 13.42 24.5226 12.426C24.0596 11.4109 23.3333 10.5438 22.344 9.82471C21.3757 9.10566 20.1338 8.5558 18.6182 8.17512C17.1237 7.79445 15.324 7.60411 13.219 7.60411H7.40935V23.7511ZM7.40935 43.8H15.0188C17.0606 43.8 18.8287 43.6097 20.3233 43.229C21.8388 42.8272 23.0807 42.2773 24.049 41.5794C25.0384 40.8603 25.7646 40.0038 26.2277 39.0098C26.7118 38.0158 26.9539 36.9267 26.9539 35.7424C26.9539 34.41 26.7434 33.1728 26.3224 32.0308C25.9014 30.8888 25.2068 29.9053 24.2385 29.0805C23.2912 28.2346 22.0388 27.5684 20.4811 27.082C18.9445 26.5956 17.05 26.3524 14.7977 26.3524H7.40935V43.8Z" fill="white"/>
<path d="M129.783 4.81249V7.54066H107.712V22.5773H122.489V25.3055H107.712V44.1489H129.783V46.8771H100.671V4.81249H129.783Z" fill="white"/>
<path d="M230.243 4.81249L199.964 44.1489H230.243V46.8771H190.491V45.8303L219.887 7.54066H190.491V4.81249H230.243Z" fill="white"/>
<path d="M323 4.81249V7.54066H300.93V22.5773H315.706V25.3055H300.93V44.1489H323V46.8771H293.888V4.81249H323Z" fill="white"/>
<path d="M243.368 0L213.088 39.3365H243.368V42.0646H203.616V41.0178L233.012 2.72817H203.616V0H243.368Z" fill="white"/>
</svg>
