<svg width="500" height="137" viewBox="0 0 500 137" fill="none" xmlns="http://www.w3.org/2000/svg">
<path d="M0 0H32.0389C52.0987 0 62.1286 6.44391 62.1286 19.3317C62.1286 27.7615 57.0527 33.2328 46.901 35.7455C59.5704 38.6635 65.905 45.2695 65.905 55.5635C65.905 61.6427 63.3874 66.506 58.3521 70.1535C53.3981 73.801 46.698 75.6248 38.2517 75.6248H0V73.801C4.87283 73.801 8.12138 73.0715 9.74566 71.6125C11.4512 70.1535 12.3039 67.3166 12.3039 63.1017V12.4015C12.3039 8.26766 11.4512 5.47125 9.74566 4.01225C8.04017 2.55325 4.79162 1.82375 0 1.82375V0ZM21.075 67.8435C21.075 70.9236 24.5266 72.4636 31.4298 72.4636C47.4289 72.4636 55.4284 66.6682 55.4284 55.0772C55.4284 49.9707 52.992 45.8369 48.1192 42.6757C43.2464 39.4335 34.2316 37.8124 21.075 37.8124V67.8435ZM21.075 34.5296L33.6225 34.4081C46.698 34.4081 53.2357 29.5853 53.2357 19.9397C53.2357 14.59 50.9211 10.4562 46.2919 7.53817C41.7439 4.62017 35.8965 3.16117 28.7497 3.16117C23.6332 3.16117 21.075 4.29594 21.075 6.5655V34.5296Z" fill="white"/>
<path d="M208.673 75.6248H146.91V73.801C154.544 73.801 158.361 70.2751 158.361 63.2233V12.5231C158.361 8.95663 157.63 6.40339 156.169 4.86333C154.788 3.24222 151.702 2.22902 146.91 1.82375V0H207.699L208.064 16.4137H205.993C205.1 11.3072 203.435 7.86239 200.999 6.07916C198.562 4.21489 194.177 3.28275 187.842 3.28275H170.909C168.391 3.28275 167.132 4.57964 167.132 7.17341V34.2865H186.136C190.278 34.2865 193.283 33.6786 195.151 32.4627C197.019 31.1658 198.359 27.9236 199.171 22.7361H201.364V49.2412H199.171C198.359 44.1347 197.019 40.933 195.151 39.6361C193.283 38.3393 190.278 37.6503 186.136 37.5692L167.132 37.4476V67.6003C167.132 69.5456 167.782 70.8425 169.082 71.491C170.462 72.0583 175.985 72.342 185.649 72.342C192.715 72.342 198.115 71.1667 201.851 68.8161C205.587 66.3845 208.754 62.2101 211.353 56.293H213.912L208.673 75.6248Z" fill="white"/>
<path d="M356.956 55.5635L354.154 75.6248H289.589V73.9226L342.946 3.28275H314.318C308.715 3.28275 304.37 4.33647 301.284 6.44392C298.279 8.4703 296.127 12.8473 294.827 19.5749H292.147L294.462 0H354.641V1.70217L301.405 72.342H334.663C339.779 72.342 343.84 71.3288 346.845 69.3025C349.931 67.195 352.53 62.6154 354.641 55.5635H356.956Z" fill="white"/>
<path d="M494.762 75.6248H432.999V73.801C440.633 73.801 444.45 70.2751 444.45 63.2233V12.5231C444.45 8.95663 443.719 6.40339 442.257 4.86333C440.876 3.24222 437.79 2.22902 432.999 1.82375V0H493.787L494.153 16.4137H492.082C491.188 11.3072 489.523 7.86239 487.087 6.07916C484.651 4.21489 480.265 3.28275 473.93 3.28275H456.997C454.48 3.28275 453.221 4.57964 453.221 7.17341V34.2865H472.225C476.367 34.2865 479.372 33.6786 481.24 32.4627C483.107 31.1658 484.448 27.9236 485.26 22.7361H487.452V49.2412H485.26C484.448 44.1347 483.107 40.933 481.24 39.6361C479.372 38.3393 476.367 37.6503 472.225 37.5692L453.221 37.4476V67.6003C453.221 69.5456 453.871 70.8425 455.17 71.491C456.551 72.0583 462.073 72.342 471.738 72.342C478.803 72.342 484.204 71.1667 487.94 68.8161C491.676 66.3845 494.843 62.2101 497.442 56.293H500L494.762 75.6248Z" fill="white"/>
<path d="M166.681 130.678C167.299 131.877 168.208 132.801 169.41 133.45C170.612 134.066 171.879 134.374 173.211 134.374C173.828 134.374 174.445 134.277 175.063 134.082C175.68 133.887 176.232 133.612 176.719 133.255C177.207 132.899 177.597 132.477 177.889 131.991C178.214 131.472 178.376 130.888 178.376 130.24C178.376 129.202 178.035 128.424 177.353 127.906C176.703 127.387 175.891 126.982 174.917 126.69C173.942 126.398 172.87 126.155 171.7 125.96C170.531 125.733 169.459 125.409 168.484 124.988C167.51 124.534 166.681 123.918 165.999 123.14C165.35 122.361 165.025 121.259 165.025 119.832C165.025 118.73 165.252 117.774 165.707 116.963C166.162 116.153 166.746 115.488 167.461 114.969C168.208 114.418 169.037 114.013 169.946 113.753C170.856 113.494 171.782 113.364 172.724 113.364C174.575 113.364 176.167 113.705 177.499 114.386C178.864 115.066 179.919 116.136 180.666 117.595L178.035 119.152C177.483 118.114 176.784 117.336 175.94 116.817C175.128 116.266 174.056 115.99 172.724 115.99C172.204 115.99 171.652 116.071 171.067 116.234C170.515 116.396 170.011 116.623 169.556 116.914C169.102 117.206 168.712 117.579 168.387 118.033C168.095 118.487 167.948 119.006 167.948 119.589C167.948 120.594 168.273 121.34 168.923 121.826C169.605 122.313 170.434 122.702 171.408 122.994C172.383 123.253 173.455 123.48 174.624 123.674C175.794 123.869 176.866 124.193 177.84 124.647C178.815 125.069 179.627 125.701 180.277 126.544C180.959 127.354 181.3 128.522 181.3 130.045C181.3 131.213 181.073 132.234 180.618 133.109C180.195 133.952 179.594 134.666 178.815 135.249C178.068 135.833 177.207 136.271 176.232 136.562C175.258 136.854 174.234 137 173.162 137C171.213 137 169.426 136.627 167.802 135.881C166.21 135.136 164.976 133.985 164.099 132.428L166.681 130.678Z" fill="white"/>
<path d="M207.164 116.574H200.732V131.213C200.732 132.218 201.008 132.996 201.56 133.547C202.112 134.098 202.876 134.374 203.85 134.374C204.403 134.374 204.955 134.309 205.507 134.179C206.092 134.017 206.644 133.823 207.164 133.596L207.408 136.222C206.855 136.416 206.222 136.595 205.507 136.757C204.793 136.919 204.159 137 203.607 137C202.567 137 201.674 136.838 200.927 136.514C200.18 136.222 199.579 135.817 199.124 135.298C198.669 134.779 198.328 134.179 198.101 133.498C197.906 132.785 197.808 132.023 197.808 131.213V116.574H192.935V113.948H197.808V107.48H200.732V113.948H207.164V116.574Z" fill="white"/>
<path d="M240.202 130.094C240.202 130.516 240.218 131.034 240.251 131.65C240.283 132.234 240.3 132.834 240.3 133.45C240.332 134.066 240.365 134.649 240.397 135.201C240.43 135.719 240.446 136.125 240.446 136.416H237.522C237.49 135.573 237.457 134.763 237.425 133.985C237.425 133.207 237.392 132.704 237.327 132.477H237.181C236.596 133.709 235.622 134.779 234.257 135.687C232.893 136.562 231.301 137 229.482 137C227.728 137 226.282 136.724 225.145 136.173C224.041 135.622 223.164 134.909 222.514 134.033C221.897 133.126 221.474 132.088 221.247 130.921C221.019 129.754 220.906 128.554 220.906 127.322V113.948H223.829V127.176C223.829 128.084 223.911 128.976 224.073 129.851C224.236 130.694 224.512 131.456 224.901 132.137C225.324 132.818 225.892 133.369 226.607 133.79C227.354 134.179 228.312 134.374 229.482 134.374C230.554 134.374 231.561 134.195 232.503 133.839C233.478 133.45 234.306 132.882 234.988 132.137C235.703 131.359 236.255 130.402 236.645 129.267C237.067 128.1 237.278 126.738 237.278 125.182V113.948H240.202V130.094Z" fill="white"/>
<path d="M276.683 132.477H276.586C276.131 133.255 275.563 133.936 274.88 134.52C274.198 135.071 273.451 135.541 272.639 135.93C271.859 136.287 271.031 136.546 270.154 136.708C269.277 136.903 268.416 137 267.571 137C265.849 137 264.258 136.708 262.796 136.125C261.334 135.541 260.083 134.73 259.044 133.693C258.004 132.623 257.192 131.375 256.607 129.948C256.023 128.489 255.73 126.9 255.73 125.182C255.73 123.464 256.023 121.891 256.607 120.465C257.192 119.006 258.004 117.757 259.044 116.72C260.083 115.65 261.334 114.823 262.796 114.24C264.258 113.656 265.849 113.364 267.571 113.364C268.416 113.364 269.277 113.461 270.154 113.656C271.031 113.818 271.859 114.094 272.639 114.483C273.451 114.839 274.198 115.31 274.88 115.893C275.563 116.444 276.131 117.109 276.586 117.887H276.683V99.6496H279.607V136.416H276.683V132.477ZM276.976 125.182C276.976 123.918 276.732 122.734 276.245 121.632C275.757 120.497 275.092 119.524 274.247 118.714C273.402 117.871 272.411 117.206 271.274 116.72C270.137 116.234 268.903 115.99 267.571 115.99C266.207 115.99 264.972 116.234 263.868 116.72C262.763 117.206 261.821 117.871 261.041 118.714C260.262 119.524 259.661 120.497 259.239 121.632C258.849 122.734 258.654 123.918 258.654 125.182C258.654 126.447 258.849 127.646 259.239 128.781C259.661 129.883 260.262 130.856 261.041 131.699C261.821 132.51 262.763 133.158 263.868 133.644C264.972 134.131 266.207 134.374 267.571 134.374C268.903 134.374 270.137 134.131 271.274 133.644C272.411 133.158 273.402 132.51 274.247 131.699C275.092 130.856 275.757 129.883 276.245 128.781C276.732 127.646 276.976 126.447 276.976 125.182Z" fill="white"/>
<path d="M296.092 113.948H299.016V136.416H296.092V113.948ZM295.361 105.048C295.361 104.432 295.572 103.913 295.995 103.492C296.417 103.07 296.937 102.859 297.554 102.859C298.171 102.859 298.691 103.07 299.113 103.492C299.535 103.913 299.747 104.432 299.747 105.048C299.747 105.664 299.535 106.183 299.113 106.604C298.691 107.026 298.171 107.236 297.554 107.236C296.937 107.236 296.417 107.026 295.995 106.604C295.572 106.183 295.361 105.664 295.361 105.048Z" fill="white"/>
<path d="M314.815 125.182C314.815 123.464 315.107 121.891 315.692 120.465C316.277 119.006 317.089 117.757 318.129 116.72C319.168 115.65 320.419 114.823 321.881 114.24C323.343 113.656 324.934 113.364 326.656 113.364C328.378 113.364 329.953 113.656 331.383 114.24C332.845 114.823 334.095 115.65 335.135 116.72C336.207 117.757 337.035 119.006 337.62 120.465C338.205 121.891 338.497 123.464 338.497 125.182C338.497 126.9 338.205 128.489 337.62 129.948C337.035 131.375 336.207 132.623 335.135 133.693C334.095 134.73 332.845 135.541 331.383 136.125C329.953 136.708 328.378 137 326.656 137C324.934 137 323.343 136.708 321.881 136.125C320.419 135.541 319.168 134.73 318.129 133.693C317.089 132.623 316.277 131.375 315.692 129.948C315.107 128.489 314.815 126.9 314.815 125.182ZM317.739 125.182C317.739 126.447 317.934 127.646 318.324 128.781C318.746 129.883 319.347 130.856 320.126 131.699C320.906 132.51 321.848 133.158 322.953 133.644C324.057 134.131 325.292 134.374 326.656 134.374C328.02 134.374 329.255 134.131 330.359 133.644C331.464 133.158 332.406 132.51 333.186 131.699C333.965 130.856 334.55 129.883 334.94 128.781C335.362 127.646 335.573 126.447 335.573 125.182C335.573 123.918 335.362 122.734 334.94 121.632C334.55 120.497 333.965 119.524 333.186 118.714C332.406 117.871 331.464 117.206 330.359 116.72C329.255 116.234 328.02 115.99 326.656 115.99C325.292 115.99 324.057 116.234 322.953 116.72C321.848 117.206 320.906 117.871 320.126 118.714C319.347 119.524 318.746 120.497 318.324 121.632C317.934 122.734 317.739 123.918 317.739 125.182Z" fill="white"/>
</svg>
