<svg width="400" height="115" viewBox="0 0 400 115" fill="none" xmlns="http://www.w3.org/2000/svg">
<path d="M125.114 109.585C125.64 110.612 126.416 111.404 127.441 111.959C128.467 112.487 129.548 112.751 130.684 112.751C131.21 112.751 131.737 112.667 132.264 112.501C132.79 112.334 133.261 112.098 133.677 111.792C134.093 111.487 134.425 111.126 134.675 110.709C134.952 110.265 135.09 109.765 135.09 109.21C135.09 108.321 134.799 107.655 134.217 107.21C133.663 106.766 132.97 106.419 132.139 106.169C131.307 105.919 130.393 105.711 129.395 105.544C128.398 105.35 127.483 105.072 126.652 104.711C125.82 104.322 125.114 103.794 124.532 103.128C123.977 102.461 123.7 101.517 123.7 100.295C123.7 99.351 123.894 98.5318 124.282 97.8375C124.67 97.1433 125.169 96.5739 125.779 96.1296C126.416 95.6575 127.123 95.3104 127.899 95.0882C128.675 94.866 129.465 94.755 130.268 94.755C131.848 94.755 133.206 95.0465 134.342 95.6297C135.506 96.2129 136.407 97.1294 137.044 98.3791L134.799 99.7121C134.328 98.8234 133.732 98.1569 133.012 97.7126C132.319 97.2404 131.404 97.0044 130.268 97.0044C129.825 97.0044 129.354 97.0738 128.855 97.2127C128.384 97.3515 127.954 97.5459 127.566 97.7959C127.178 98.0458 126.846 98.3652 126.568 98.754C126.319 99.1428 126.194 99.5871 126.194 100.087C126.194 100.948 126.471 101.587 127.026 102.003C127.608 102.42 128.314 102.753 129.146 103.003C129.977 103.225 130.892 103.42 131.889 103.586C132.887 103.753 133.802 104.03 134.633 104.419C135.465 104.78 136.157 105.322 136.712 106.044C137.294 106.738 137.585 107.738 137.585 109.043C137.585 110.043 137.391 110.918 137.003 111.667C136.642 112.39 136.13 113 135.465 113.5C134.827 114 134.093 114.375 133.261 114.625C132.43 114.875 131.557 115 130.642 115C128.98 115 127.455 114.681 126.07 114.042C124.712 113.403 123.659 112.417 122.91 111.084L125.114 109.585Z" fill="#363636"/>
<path d="M159.649 97.5043H154.162V110.043C154.162 110.904 154.398 111.57 154.869 112.042C155.34 112.514 155.991 112.751 156.822 112.751C157.294 112.751 157.765 112.695 158.236 112.584C158.735 112.445 159.206 112.278 159.649 112.084L159.857 114.333C159.386 114.5 158.846 114.653 158.236 114.792C157.626 114.931 157.086 115 156.615 115C155.728 115 154.966 114.861 154.328 114.583C153.691 114.333 153.178 113.986 152.79 113.542C152.402 113.098 152.111 112.584 151.917 112.001C151.751 111.39 151.668 110.737 151.668 110.043V97.5043H147.511V95.2548H151.668V89.7145H154.162V95.2548H159.649V97.5043Z" fill="#363636"/>
<path d="M187.834 109.085C187.834 109.446 187.848 109.89 187.876 110.418C187.903 110.918 187.917 111.431 187.917 111.959C187.945 112.487 187.973 112.987 188 113.459C188.028 113.903 188.042 114.25 188.042 114.5H185.548C185.52 113.778 185.492 113.084 185.465 112.417C185.465 111.751 185.437 111.32 185.381 111.126H185.257C184.758 112.181 183.927 113.098 182.763 113.875C181.599 114.625 180.241 115 178.689 115C177.192 115 175.959 114.764 174.989 114.292C174.047 113.82 173.298 113.209 172.744 112.459C172.218 111.681 171.857 110.793 171.663 109.793C171.469 108.793 171.372 107.766 171.372 106.71V95.2548H173.867V106.585C173.867 107.363 173.936 108.127 174.074 108.876C174.213 109.599 174.449 110.251 174.781 110.834C175.141 111.418 175.626 111.89 176.236 112.251C176.873 112.584 177.691 112.751 178.689 112.751C179.603 112.751 180.462 112.598 181.266 112.292C182.097 111.959 182.804 111.473 183.386 110.834C183.996 110.168 184.467 109.349 184.799 108.377C185.16 107.377 185.34 106.21 185.34 104.877V95.2548H187.834V109.085Z" fill="#363636"/>
<path d="M218.956 111.126H218.873C218.485 111.792 218 112.376 217.418 112.876C216.836 113.348 216.199 113.75 215.506 114.084C214.841 114.389 214.134 114.611 213.386 114.75C212.638 114.917 211.903 115 211.183 115C209.714 115 208.356 114.75 207.109 114.25C205.862 113.75 204.795 113.056 203.908 112.167C203.021 111.251 202.328 110.182 201.829 108.96C201.33 107.71 201.081 106.349 201.081 104.877C201.081 103.406 201.33 102.059 201.829 100.837C202.328 99.5871 203.021 98.5179 203.908 97.6292C204.795 96.7128 205.862 96.0046 207.109 95.5048C208.356 95.0049 209.714 94.755 211.183 94.755C211.903 94.755 212.638 94.8383 213.386 95.0049C214.134 95.1437 214.841 95.3798 215.506 95.7131C216.199 96.0185 216.836 96.4212 217.418 96.9211C218 97.3932 218.485 97.9625 218.873 98.629H218.956V83.0078H221.45V114.5H218.956V111.126ZM219.206 104.877C219.206 103.794 218.998 102.781 218.582 101.837C218.166 100.865 217.598 100.031 216.878 99.3372C216.157 98.6151 215.312 98.0458 214.342 97.6292C213.372 97.2127 212.319 97.0044 211.183 97.0044C210.019 97.0044 208.966 97.2127 208.023 97.6292C207.081 98.0458 206.277 98.6151 205.612 99.3372C204.947 100.031 204.434 100.865 204.074 101.837C203.742 102.781 203.575 103.794 203.575 104.877C203.575 105.961 203.742 106.988 204.074 107.96C204.434 108.904 204.947 109.737 205.612 110.459C206.277 111.154 207.081 111.709 208.023 112.126C208.966 112.542 210.019 112.751 211.183 112.751C212.319 112.751 213.372 112.542 214.342 112.126C215.312 111.709 216.157 111.154 216.878 110.459C217.598 109.737 218.166 108.904 218.582 107.96C218.998 106.988 219.206 105.961 219.206 104.877Z" fill="#363636"/>
<path d="M235.514 95.2548H238.008V114.5H235.514V95.2548ZM234.89 87.6317C234.89 87.104 235.07 86.6597 235.431 86.2987C235.791 85.9377 236.234 85.7571 236.761 85.7571C237.287 85.7571 237.731 85.9377 238.091 86.2987C238.451 86.6597 238.632 87.104 238.632 87.6317C238.632 88.1593 238.451 88.6037 238.091 88.9647C237.731 89.3257 237.287 89.5062 236.761 89.5062C236.234 89.5062 235.791 89.3257 235.431 88.9647C235.07 88.6037 234.89 88.1593 234.89 87.6317Z" fill="#363636"/>
<path d="M251.486 104.877C251.486 103.406 251.736 102.059 252.235 100.837C252.734 99.5871 253.426 98.5179 254.313 97.6292C255.2 96.7128 256.267 96.0046 257.514 95.5048C258.761 95.0049 260.119 94.755 261.588 94.755C263.057 94.755 264.401 95.0049 265.62 95.5048C266.867 96.0046 267.934 96.7128 268.821 97.6292C269.736 98.5179 270.442 99.5871 270.941 100.837C271.44 102.059 271.69 103.406 271.69 104.877C271.69 106.349 271.44 107.71 270.941 108.96C270.442 110.182 269.736 111.251 268.821 112.167C267.934 113.056 266.867 113.75 265.62 114.25C264.401 114.75 263.057 115 261.588 115C260.119 115 258.761 114.75 257.514 114.25C256.267 113.75 255.2 113.056 254.313 112.167C253.426 111.251 252.734 110.182 252.235 108.96C251.736 107.71 251.486 106.349 251.486 104.877ZM253.981 104.877C253.981 105.961 254.147 106.988 254.48 107.96C254.84 108.904 255.352 109.737 256.018 110.459C256.683 111.154 257.486 111.709 258.429 112.126C259.371 112.542 260.424 112.751 261.588 112.751C262.752 112.751 263.805 112.542 264.747 112.126C265.69 111.709 266.493 111.154 267.158 110.459C267.824 109.737 268.322 108.904 268.655 107.96C269.015 106.988 269.195 105.961 269.195 104.877C269.195 103.794 269.015 102.781 268.655 101.837C268.322 100.865 267.824 100.031 267.158 99.3372C266.493 98.6151 265.69 98.0458 264.747 97.6292C263.805 97.2127 262.752 97.0044 261.588 97.0044C260.424 97.0044 259.371 97.2127 258.429 97.6292C257.486 98.0458 256.683 98.6151 256.018 99.3372C255.352 100.031 254.84 100.865 254.48 101.837C254.147 102.781 253.981 103.794 253.981 104.877Z" fill="#363636"/>
<path d="M0 5.95093H20.904C23.6703 5.95093 26.2017 6.26474 28.4983 6.89238C30.8209 7.49387 32.8043 8.35687 34.4485 9.48138C36.1187 10.6059 37.4105 11.9527 38.3239 13.5218C39.2373 15.0909 39.694 16.8169 39.694 18.6998C39.694 20.1381 39.5505 21.4196 39.2634 22.5441C38.9764 23.6686 38.4675 24.7147 37.7367 25.6823C37.006 26.6237 36.0274 27.5259 34.8008 28.3889C33.6003 29.2258 32.0736 30.0888 30.2207 30.9779V31.1349C32.0736 31.4225 33.7438 31.9194 35.2314 32.6255C36.7189 33.3316 37.9847 34.2338 39.0286 35.3322C40.0985 36.4044 40.9206 37.6727 41.4948 39.1372C42.0689 40.5756 42.356 42.1577 42.356 43.8837C42.356 45.8451 41.9254 47.6888 41.0641 49.4148C40.229 51.1146 39.0155 52.6053 37.4236 53.8867C35.8577 55.142 33.9526 56.1357 31.7083 56.868C29.49 57.6002 26.9977 57.9663 24.2314 57.9663H0V5.95093ZM8.72956 29.3696H19.847C21.5955 29.3696 23.1483 29.1212 24.5054 28.6243C25.8625 28.1274 27.0107 27.4475 27.9502 26.5845C28.8897 25.6953 29.5944 24.6493 30.0641 23.4463C30.56 22.2172 30.8079 20.8965 30.8079 19.4843C30.8079 17.9676 30.5208 16.5946 29.9467 15.3655C29.3725 14.1102 28.4722 13.038 27.2456 12.1488C26.0451 11.2597 24.5054 10.5797 22.6264 10.109C20.7735 9.63829 18.5422 9.40293 15.9324 9.40293H8.72956V29.3696ZM8.72956 54.1613H18.1637C20.6952 54.1613 22.8874 53.9259 24.7403 53.4552C26.6193 52.9583 28.159 52.2784 29.3595 51.4154C30.5861 50.5262 31.4864 49.4671 32.0606 48.238C32.6608 47.0088 32.9609 45.662 32.9609 44.1975C32.9609 42.55 32.7 41.0201 32.178 39.6079C31.6561 38.1958 30.7948 36.9797 29.5944 35.9598C28.42 34.9137 26.8672 34.09 24.936 33.4885C23.0309 32.887 20.6821 32.5863 17.8897 32.5863H8.72956V54.1613Z" fill="#363636"/>
<path d="M160.448 5.95093V9.32447H133.085V27.9182H151.406V31.2918H133.085V54.5928H160.448V57.9663H124.356V5.95093H160.448Z" fill="#363636"/>
<path d="M285 5.95093L247.459 54.5928H285V57.9663H235.715V56.6718L272.16 9.32447H235.715V5.95093H285Z" fill="#363636"/>
<path d="M400 5.95093V9.32447H372.637V27.9182H390.957V31.2918H372.637V54.5928H400V57.9663H363.907V5.95093H400Z" fill="#363636"/>
<path d="M301.272 0L263.731 48.6418H301.272V52.0154H251.987V50.7209L288.432 3.37355H251.987V0H301.272Z" fill="#363636"/>
</svg>
