<svg width="35" height="35" viewBox="0 0 35 35" fill="none" xmlns="http://www.w3.org/2000/svg">
<path d="M17.5 2.1875C11.4618 2.1875 6.5625 6.59736 6.5625 12.0312C6.5625 20.7812 17.5 32.8125 17.5 32.8125C17.5 32.8125 28.4375 20.7812 28.4375 12.0312C28.4375 6.59736 23.5382 2.1875 17.5 2.1875ZM17.5 17.5C16.6347 17.5 15.7888 17.2434 15.0694 16.7627C14.3499 16.2819 13.7892 15.5987 13.458 14.7992C13.1269 13.9998 13.0403 13.1201 13.2091 12.2715C13.3779 11.4228 13.7946 10.6433 14.4064 10.0314C15.0183 9.41955 15.7978 9.00287 16.6465 8.83406C17.4951 8.66525 18.3748 8.75189 19.1742 9.08303C19.9737 9.41416 20.6569 9.97492 21.1377 10.6944C21.6184 11.4138 21.875 12.2597 21.875 13.125C21.8737 14.2849 21.4124 15.397 20.5922 16.2172C19.772 17.0374 18.6599 17.4987 17.5 17.5Z" fill="#B79D83"/>
</svg>
