<svg width="1657" height="130" viewBox="0 0 1657 130" fill="none" xmlns="http://www.w3.org/2000/svg">
<path d="M0.417969 128V123.8C4.81797 123 7.88464 122 9.61797 120.8C11.4846 119.467 12.418 117.067 12.418 113.6V18.0001C12.418 14.6668 11.4846 12.4001 9.61797 11.2001C7.88464 9.86676 4.81797 8.8001 0.417969 8.0001V3.80009H58.418C72.6846 3.80009 83.6846 6.26676 91.418 11.2001C99.2846 16.0001 103.218 23.0668 103.218 32.4001C103.218 47.2001 93.5513 56.8668 74.218 61.4001C85.9513 63.2668 94.8846 66.9334 101.018 72.4001C107.285 77.8668 110.418 85.0668 110.418 94.0001C110.418 104 106.618 112.2 99.018 118.6C91.418 124.867 81.4846 128 69.218 128C67.4846 128 61.6846 127.8 51.818 127.4C42.0846 126.867 32.5513 126.6 23.218 126.6C14.018 126.6 6.41797 127.067 0.417969 128ZM43.018 58.0001H57.818C75.818 58.0001 84.818 49.7334 84.818 33.2001C84.818 17.2001 75.9513 9.20009 58.218 9.20009H43.018C38.7513 9.20009 35.618 9.80009 33.618 11.0001C31.618 12.2001 30.618 14.4668 30.618 17.8001V49.4001C30.618 52.7334 31.5513 55.0001 33.418 56.2001C35.418 57.4001 38.618 58.0001 43.018 58.0001ZM37.818 122H62.818C82.2846 122 92.018 112.867 92.018 94.6001C92.018 84.0668 88.3513 76.2668 81.018 71.2001C73.818 66.1334 61.3513 63.6001 43.618 63.6001C39.0846 63.6001 35.7513 64.2001 33.618 65.4001C31.618 66.6001 30.618 68.8668 30.618 72.2001V113.2C30.618 119.067 33.018 122 37.818 122Z" fill="white" fill-opacity="0.5"/>
<path d="M173.465 128V123.8C177.865 123 180.932 122 182.665 120.8C184.532 119.467 185.465 117.067 185.465 113.6V18.2001C185.465 14.7334 184.532 12.4001 182.665 11.2001C180.932 9.86676 177.865 8.8001 173.465 8.0001V3.80009H264.265C266.132 3.80009 267.131 4.60009 267.265 6.2001C268.065 13.1334 269.398 20.4001 271.265 28.0001H267.465C264.932 21.7334 261.665 17.0668 257.665 14.0001C253.665 10.9334 248.332 9.40009 241.665 9.40009H216.065C211.798 9.40009 208.665 10.0668 206.665 11.4001C204.665 12.7334 203.665 15.2001 203.665 18.8001V53.0001C203.665 56.6001 204.598 59.0001 206.465 60.2001C208.465 61.4001 211.665 62.0001 216.065 62.0001H235.865C241.598 62.0001 245.532 60.9334 247.665 58.8001C249.798 56.5334 251.332 52.8001 252.265 47.6001H255.465V82.2001H252.265C251.332 77.1334 249.798 73.4668 247.665 71.2001C245.532 68.8001 241.598 67.6001 235.865 67.6001H216.065C211.798 67.6001 208.665 68.2668 206.665 69.6001C204.665 70.8001 203.665 73.1334 203.665 76.6001V112.8C203.665 116.533 204.932 119.067 207.465 120.4C210.132 121.733 215.132 122.333 222.465 122.2L245.465 122C252.132 121.867 256.932 120.933 259.865 119.2C262.932 117.333 265.465 114.667 267.465 111.2L272.265 103.8H276.265C273.332 109.133 271.332 116.267 270.265 125.2C269.998 127.067 268.932 128 267.065 128H173.465Z" fill="white" fill-opacity="0.5"/>
<path d="M332.77 128L411.57 12.2001C412.77 9.93343 412.17 8.8001 409.77 8.8001L373.57 9.0001C364.103 9.0001 357.303 10.6001 353.17 13.8001C349.17 17.0001 345.903 22.0001 343.37 28.8001H338.57L342.57 3.80009H438.37L359.37 119.6C358.703 120.4 358.57 121.2 358.97 122C359.37 122.667 360.103 123 361.17 123L403.57 122.4C411.97 122.267 418.236 120.8 422.37 118C426.503 115.067 430.236 110.333 433.57 103.8H438.37L433.17 128H332.77Z" fill="white" fill-opacity="0.5"/>
<path d="M499.441 128V123.8C503.841 123 506.908 122 508.641 120.8C510.508 119.467 511.441 117.067 511.441 113.6V18.2001C511.441 14.7334 510.508 12.4001 508.641 11.2001C506.908 9.86676 503.841 8.8001 499.441 8.0001V3.80009H590.241C592.108 3.80009 593.108 4.60009 593.241 6.2001C594.041 13.1334 595.375 20.4001 597.241 28.0001H593.441C590.908 21.7334 587.641 17.0668 583.641 14.0001C579.641 10.9334 574.308 9.40009 567.641 9.40009H542.041C537.775 9.40009 534.641 10.0668 532.641 11.4001C530.641 12.7334 529.641 15.2001 529.641 18.8001V53.0001C529.641 56.6001 530.575 59.0001 532.441 60.2001C534.441 61.4001 537.641 62.0001 542.041 62.0001H561.841C567.575 62.0001 571.508 60.9334 573.641 58.8001C575.775 56.5334 577.308 52.8001 578.241 47.6001H581.441V82.2001H578.241C577.308 77.1334 575.775 73.4668 573.641 71.2001C571.508 68.8001 567.575 67.6001 561.841 67.6001H542.041C537.775 67.6001 534.641 68.2668 532.641 69.6001C530.641 70.8001 529.641 73.1334 529.641 76.6001V112.8C529.641 116.533 530.908 119.067 533.441 120.4C536.108 121.733 541.108 122.333 548.441 122.2L571.441 122C578.108 121.867 582.908 120.933 585.841 119.2C588.908 117.333 591.441 114.667 593.441 111.2L598.241 103.8H602.241C599.308 109.133 597.308 116.267 596.241 125.2C595.975 127.067 594.908 128 593.041 128H499.441Z" fill="white" fill-opacity="0.5"/>
<path d="M792.66 130C779.46 130 766.793 126.4 754.66 119.2C751.86 112.267 750.527 105.6 750.66 99.2001C750.927 92.8001 752.527 89.6001 755.46 89.6001C757.06 89.6001 758.127 90.4001 758.66 92.0001C761.86 102 767.127 109.867 774.46 115.6C781.793 121.333 790.26 124.133 799.86 124C807.594 123.733 813.66 121.8 818.06 118.2C822.594 114.467 824.86 108.933 824.86 101.6C824.86 99.6001 824.66 97.8001 824.26 96.2001C823.993 94.4668 823.393 92.8668 822.46 91.4001C821.527 89.9334 820.727 88.6668 820.06 87.6001C819.394 86.5334 818.193 85.4668 816.46 84.4001C814.727 83.3334 813.393 82.5334 812.46 82.0001C811.66 81.3334 809.993 80.5334 807.46 79.6001C805.06 78.6668 803.393 78.0668 802.46 77.8001C801.66 77.4001 799.727 76.7334 796.66 75.8001C793.727 74.7334 791.86 74.0668 791.06 73.8001C778.66 69.5334 769.06 64.4001 762.26 58.4001C755.46 52.2668 752.06 44.4001 752.06 34.8001C752.06 24.6668 756.06 16.4668 764.06 10.2001C772.06 3.8001 782.993 0.600098 796.86 0.600098C810.327 0.600098 822.26 3.66676 832.66 9.8001C835.46 16.8668 836.727 23.6001 836.46 30.0001C836.327 36.2668 834.794 39.4001 831.86 39.4001C830.394 39.4001 829.327 38.6001 828.66 37.0001C825.46 27.1334 820.46 19.6001 813.66 14.4001C806.993 9.06676 799.527 6.40009 791.26 6.40009C783.527 6.40009 777.794 8.60009 774.06 13.0001C770.327 17.2668 768.46 22.4668 768.46 28.6001C768.46 35.6668 770.86 41.1334 775.66 45.0001C780.593 48.7334 787.927 52.2001 797.66 55.4001C802.46 57.0001 805.793 58.2001 807.66 59.0001C809.66 59.6668 812.86 61.0001 817.26 63.0001C821.793 64.8668 825.127 66.6668 827.26 68.4001C829.527 70.1334 831.993 72.3334 834.66 75.0001C837.46 77.6668 839.46 80.7334 840.66 84.2001C841.86 87.5334 842.46 91.2668 842.46 95.4001C842.46 107 837.594 115.667 827.86 121.4C818.127 127.133 806.393 130 792.66 130Z" fill="white" fill-opacity="0.5"/>
<path d="M924.218 128V123.8C932.618 123.133 938.085 122.2 940.618 121C943.285 119.667 944.618 117.2 944.618 113.6V22.2001C944.618 17.2668 943.685 14.0668 941.818 12.6001C939.951 11.0001 935.418 10.2001 928.218 10.2001C921.285 10.2001 916.218 11.5334 913.018 14.2001C909.818 16.7334 906.818 21.9334 904.018 29.8001H899.418L902.618 5.0001C902.751 3.93343 903.485 3.4001 904.818 3.4001C909.085 3.66676 913.485 3.80009 918.018 3.80009H989.218C994.018 3.80009 998.418 3.66676 1002.42 3.4001C1003.88 3.4001 1004.68 3.93343 1004.82 5.0001L1007.82 29.8001H1003.22C1000.42 21.9334 997.418 16.7334 994.218 14.2001C991.018 11.5334 985.951 10.2001 979.018 10.2001C971.818 10.2001 967.285 11.0001 965.418 12.6001C963.685 14.0668 962.818 17.2668 962.818 22.2001V113.6C962.818 117.2 964.085 119.667 966.618 121C969.285 122.2 974.751 123.133 983.018 123.8V128H924.218Z" fill="white" fill-opacity="0.5"/>
<path d="M1128.58 130C1113.91 130 1102.11 125.6 1093.18 116.8C1084.24 108 1079.78 94.9334 1079.78 77.6001V18.2001C1079.78 14.7334 1078.84 12.4001 1076.98 11.2001C1075.24 9.86676 1072.18 8.8001 1067.78 8.0001V3.80009H1110.18V8.0001C1105.64 8.8001 1102.44 9.86676 1100.58 11.2001C1098.84 12.4001 1097.98 14.7334 1097.98 18.2001V73.8001C1097.98 89.6668 1100.98 101.6 1106.98 109.6C1113.11 117.467 1121.64 121.4 1132.58 121.4C1143.11 121.4 1151.78 117.8 1158.58 110.6C1165.51 103.267 1168.98 91.4001 1168.98 75.0001V18.2001C1168.98 14.7334 1167.98 12.4001 1165.98 11.2001C1164.11 9.86676 1160.84 8.8001 1156.18 8.0001V3.80009H1188.58V8.0001C1184.04 8.8001 1180.84 9.86676 1178.98 11.2001C1177.11 12.4001 1176.18 14.7334 1176.18 18.2001V76.4001C1176.18 93.6001 1172.04 106.867 1163.78 116.2C1155.51 125.4 1143.78 130 1128.58 130Z" fill="white" fill-opacity="0.5"/>
<path d="M1249.64 128V123.8C1254.04 123 1257.1 122 1258.84 120.8C1260.7 119.467 1261.64 117.067 1261.64 113.6V18.0001C1261.64 14.6668 1260.7 12.4001 1258.84 11.2001C1257.1 9.86676 1254.04 8.8001 1249.64 8.0001V3.80009H1296.44C1305.5 3.80009 1313.84 4.86676 1321.44 7.0001C1329.17 9.0001 1336.3 12.2668 1342.84 16.8001C1349.37 21.2001 1354.5 27.5334 1358.24 35.8001C1361.97 43.9334 1363.84 53.6001 1363.84 64.8001C1363.84 75.4668 1362.1 84.9334 1358.64 93.2001C1355.17 101.333 1350.37 107.867 1344.24 112.8C1338.24 117.733 1331.37 121.467 1323.64 124C1316.04 126.4 1307.77 127.6 1298.84 127.6C1296.3 127.6 1291.57 127.467 1284.64 127.2C1277.84 126.8 1273.04 126.6 1270.24 126.6C1264.37 126.6 1257.5 127.067 1249.64 128ZM1297.44 122.4C1308.64 122.4 1317.9 119.667 1325.24 114.2C1332.57 108.733 1337.64 101.867 1340.44 93.6001C1343.37 85.3334 1344.84 75.7334 1344.84 64.8001C1344.84 56.8001 1343.97 49.6001 1342.24 43.2001C1340.64 36.6668 1337.97 30.8001 1334.24 25.6001C1330.64 20.4001 1325.64 16.4001 1319.24 13.6001C1312.84 10.6668 1305.3 9.20009 1296.64 9.20009H1292.24C1287.97 9.20009 1284.84 9.80009 1282.84 11.0001C1280.84 12.2001 1279.84 14.4668 1279.84 17.8001V113.6C1279.84 119.467 1285.7 122.4 1297.44 122.4Z" fill="white" fill-opacity="0.5"/>
<path d="M1424.83 128V123.8C1429.23 123 1432.3 122 1434.03 120.8C1435.9 119.467 1436.83 117.067 1436.83 113.6V18.2001C1436.83 14.7334 1435.9 12.4001 1434.03 11.2001C1432.3 9.86676 1429.23 8.8001 1424.83 8.0001V3.80009H1467.23V8.0001C1462.7 8.8001 1459.5 9.86676 1457.63 11.2001C1455.9 12.4001 1455.03 14.7334 1455.03 18.2001V113.6C1455.03 117.067 1455.9 119.467 1457.63 120.8C1459.5 122 1462.7 123 1467.23 123.8V128H1424.83Z" fill="white" fill-opacity="0.5"/>
<path d="M1591.15 130C1573.15 130 1558.15 124 1546.15 112C1534.28 100 1528.35 84.8001 1528.35 66.4001C1528.35 47.7334 1534.61 32.1334 1547.15 19.6001C1559.68 6.93343 1575.21 0.600098 1593.75 0.600098C1611.75 0.600098 1626.68 6.6001 1638.55 18.6001C1650.55 30.6001 1656.55 45.7334 1656.55 64.0001C1656.55 82.8001 1650.28 98.5334 1637.75 111.2C1625.21 123.733 1609.68 130 1591.15 130ZM1596.35 123.4C1607.28 123.4 1616.61 119.133 1624.35 110.6C1632.21 102.067 1636.15 88.9334 1636.15 71.2001C1636.15 52.5334 1631.55 37.2001 1622.35 25.2001C1613.15 13.2001 1601.88 7.2001 1588.55 7.2001C1577.61 7.2001 1568.21 11.4668 1560.35 20.0001C1552.61 28.4001 1548.75 41.4001 1548.75 59.0001C1548.75 77.8001 1553.35 93.2668 1562.55 105.4C1571.75 117.4 1583.01 123.4 1596.35 123.4Z" fill="white" fill-opacity="0.5"/>
</svg>
