<svg xmlns="http://www.w3.org/2000/svg" version="1.1" xmlns:xlink="http://www.w3.org/1999/xlink" xmlns:svgjs="http://svgjs.dev/svgjs" width="500" height="500"><svg width="500" height="500" viewBox="0 0 500 500" fill="none" xmlns="http://www.w3.org/2000/svg">
<rect width="500" height="500" rx="20" fill="#DECEBE"></rect>
<path d="M94 70H245.675C340.64 70 388.122 100.59 388.122 161.77C388.122 201.787 364.092 227.76 316.033 239.688C376.011 253.54 406 284.9 406 333.767C406 362.625 394.081 385.712 370.244 403.027C346.791 420.342 315.072 429 275.087 429H94V420.342C117.068 420.342 132.447 416.879 140.137 409.953C148.211 403.027 152.248 389.56 152.248 369.551V128.871C152.248 109.248 148.211 95.9727 140.137 89.0466C132.063 82.1206 116.684 78.6575 94 78.6575V70ZM193.771 392.061C193.771 406.683 210.111 413.994 242.791 413.994C318.532 413.994 356.403 386.482 356.403 331.458C356.403 307.217 344.869 287.593 321.8 272.587C298.732 257.196 256.055 249.5 193.771 249.5V392.061ZM193.771 233.916L253.172 233.339C315.072 233.339 346.022 210.445 346.022 164.656C346.022 139.26 335.065 119.637 313.15 105.785C291.619 91.9325 263.937 85.0064 230.104 85.0064C205.882 85.0064 193.771 90.3934 193.771 101.167V233.916Z" fill="white"></path>
</svg><style>@media (prefers-color-scheme: light) { :root { filter: none; } }
@media (prefers-color-scheme: dark) { :root { filter: none; } }
</style></svg>