<svg xmlns="http://www.w3.org/2000/svg" version="1.1" xmlns:xlink="http://www.w3.org/1999/xlink" xmlns:svgjs="http://svgjs.dev/svgjs" width="500" height="500"><svg width="500" height="500" viewBox="0 0 500 500" fill="none" xmlns="http://www.w3.org/2000/svg">
<rect width="500" height="500" rx="20" fill="#DECEBE"></rect>
<path d="M106 73H248.137C266.946 73 284.159 75.1297 299.774 79.3891C315.567 83.4711 329.054 89.3278 340.233 96.9593C351.59 104.591 360.373 113.731 366.584 124.379C372.795 135.028 375.9 146.741 375.9 159.52C375.9 169.281 374.924 177.977 372.972 185.609C371.02 193.24 367.56 200.339 362.591 206.906C357.623 213.295 350.969 219.418 342.628 225.275C334.466 230.954 324.085 236.81 311.486 242.845V243.91C324.085 245.862 335.442 249.234 345.556 254.026C355.671 258.818 364.277 264.94 371.375 272.394C378.651 279.671 384.24 288.279 388.144 298.217C392.048 307.978 394 318.716 394 330.429C394 343.74 391.072 356.252 385.216 367.965C379.538 379.501 371.286 389.617 360.462 398.314C349.815 406.833 336.861 413.577 321.601 418.546C306.518 423.515 289.571 426 270.762 426H106V73ZM165.357 231.93H240.95C252.839 231.93 263.397 230.244 272.625 226.872C281.852 223.5 289.66 218.885 296.048 213.029C302.436 206.994 307.227 199.895 310.421 191.732C313.793 183.39 315.479 174.428 315.479 164.844C315.479 154.55 313.527 145.233 309.623 136.891C305.719 128.373 299.597 121.096 291.257 115.062C283.094 109.028 272.625 104.413 259.848 101.219C247.25 98.0241 232.078 96.4268 214.333 96.4268H165.357V231.93ZM165.357 400.177H229.505C246.717 400.177 261.623 398.58 274.222 395.385C286.998 392.013 297.468 387.399 305.63 381.542C313.97 375.508 320.092 368.32 323.996 359.979C328.078 351.638 330.118 342.497 330.118 332.559C330.118 321.378 328.344 310.995 324.795 301.412C321.246 291.828 315.39 283.575 307.227 276.654C299.242 269.555 288.684 263.964 275.553 259.882C262.599 255.8 246.628 253.759 227.641 253.759H165.357V400.177Z" fill="white"></path>
</svg><style>@media (prefers-color-scheme: light) { :root { filter: none; } }
@media (prefers-color-scheme: dark) { :root { filter: none; } }
</style></svg>