<svg width="32" height="32" viewBox="0 0 32 32" fill="none" xmlns="http://www.w3.org/2000/svg">
<path d="M29.3354 15.9994C29.3354 23.3631 23.3658 29.3327 16.002 29.3327C8.63824 29.3327 2.6687 23.3631 2.6687 15.9994C2.6687 8.63555 8.63824 2.66602 16.002 2.66602C23.3658 2.66602 29.3354 8.63555 29.3354 15.9994ZM16.4799 12.5093C15.183 13.0487 12.5911 14.1652 8.70417 15.8587C8.07298 16.1096 7.74236 16.3552 7.71225 16.5952C7.66138 17.0011 8.16952 17.1608 8.86148 17.3784C8.9556 17.408 9.05313 17.4387 9.1531 17.4712C9.83388 17.6924 10.7496 17.9514 11.2257 17.9616C11.6576 17.971 12.1395 17.793 12.6717 17.4275C16.3034 14.976 18.178 13.737 18.2958 13.7103C18.3788 13.6914 18.4939 13.6678 18.5718 13.737C18.6498 13.8063 18.642 13.9375 18.6339 13.9727C18.5835 14.1874 16.5888 16.0418 15.5567 17.0014C15.2488 17.2875 14.9488 17.5798 14.6464 17.8712C14.014 18.4808 13.5398 18.938 14.6727 19.6847C15.8212 20.4416 16.9784 21.197 18.0986 21.9955C18.651 22.3894 19.1474 22.7432 19.7604 22.6868C20.1168 22.654 20.4848 22.319 20.6716 21.3198C21.1134 18.9584 21.9816 13.8422 22.1823 11.7338C22.1999 11.5491 22.1778 11.3127 22.16 11.2089C22.1423 11.1051 22.1051 10.9573 21.9703 10.8478C21.8104 10.7182 21.5639 10.6909 21.4536 10.6928C20.952 10.7016 20.1827 10.9692 16.4799 12.5093Z" fill="#B79D83"/>
</svg>
