<svg width="32" height="32" viewBox="0 0 32 32" fill="none" xmlns="http://www.w3.org/2000/svg">
<path d="M16 2.66699C8.63607 2.66699 2.66663 8.63644 2.66663 16.0003C2.66663 23.3642 8.63607 29.3337 16 29.3337C23.3639 29.3337 29.3333 23.3642 29.3333 16.0003C29.3333 8.63644 23.3639 2.66699 16 2.66699ZM21.1277 17.7101C21.1277 17.7101 22.3069 18.8739 22.5972 19.4142C22.6055 19.4263 22.6106 19.4355 22.6125 19.442C22.7301 19.6392 22.7592 19.7952 22.7 19.91C22.6027 20.1017 22.2694 20.1962 22.1555 20.2045H20.0722C19.9277 20.2045 19.625 20.167 19.2583 19.9142C18.9764 19.717 18.6986 19.3934 18.4277 19.0781C18.0236 18.6087 17.6736 18.2031 17.3208 18.2031C17.276 18.2029 17.2314 18.2099 17.1889 18.2239C16.9222 18.3101 16.5805 18.6906 16.5805 19.7045C16.5805 20.0212 16.3305 20.2031 16.1541 20.2031H15.2C14.875 20.2031 13.1819 20.0892 11.6819 18.5073C9.84579 16.5698 8.19302 12.6837 8.17913 12.6475C8.07496 12.3962 8.29024 12.2614 8.52496 12.2614H10.6291C10.9097 12.2614 11.0013 12.4323 11.0652 12.5837C11.1402 12.76 11.4152 13.4614 11.8666 14.2503C12.5986 15.5364 13.0472 16.0587 13.4069 16.0587C13.4744 16.0579 13.5406 16.0407 13.6 16.0087C14.0694 15.7475 13.9819 14.0739 13.9611 13.7267C13.9611 13.6614 13.9597 12.9781 13.7194 12.6503C13.5472 12.4128 13.2541 12.3225 13.0763 12.2892C13.1483 12.1899 13.2431 12.1094 13.3527 12.0545C13.675 11.8934 14.2555 11.8698 14.8319 11.8698H15.1527C15.7777 11.8781 15.9389 11.9184 16.1652 11.9753C16.6236 12.085 16.6333 12.3809 16.593 13.3934C16.5805 13.6809 16.568 14.0059 16.568 14.3892L16.5639 14.6559C16.55 15.1712 16.5333 15.7559 16.8972 15.9962C16.9441 16.0271 16.9993 16.0431 17.0555 16.042C17.1819 16.042 17.5625 16.042 18.593 14.2739C18.9097 13.7042 19.1858 13.113 19.4194 12.5045C19.4402 12.4684 19.5014 12.3573 19.5736 12.3142C19.6274 12.2886 19.6862 12.2749 19.7458 12.2739H22.2194C22.4889 12.2739 22.6736 12.3142 22.7083 12.4184C22.7694 12.5837 22.6972 13.0878 21.568 14.617L21.0639 15.2823C20.0402 16.6239 20.0402 16.692 21.1277 17.7101Z" fill="#B79D83"/>
</svg>
