<svg width="32" height="32" viewBox="0 0 32 32" fill="none" xmlns="http://www.w3.org/2000/svg">
<path d="M16.0021 2.66602C23.3658 2.66602 29.3354 8.63555 29.3354 15.9994C29.3354 23.3631 23.3658 29.3327 16.0021 29.3327C13.5569 29.3327 11.2654 28.6746 9.29521 27.5256L2.67427 29.3327L4.47689 22.708C3.32731 20.7375 2.6687 18.4454 2.6687 15.9994C2.6687 8.63555 8.63824 2.66602 16.0021 2.66602ZM11.1905 9.74379C11.018 9.75591 10.8488 9.79804 10.6948 9.87683C10.5793 9.93594 10.472 10.0214 10.3035 10.1805C10.1444 10.3308 10.0522 10.462 9.95498 10.5885C9.46205 11.2303 9.19711 12.0181 9.20203 12.8273C9.20471 13.4815 9.37463 14.1172 9.64298 14.7108C10.1872 15.9146 11.0846 17.1871 12.27 18.3672C12.5547 18.6507 12.8337 18.9372 13.1345 19.202C14.6058 20.4975 16.3591 21.4316 18.255 21.9303C18.255 21.9303 19.0017 22.045 19.0126 22.0456C19.2599 22.059 19.5069 22.0411 19.7545 22.0284C20.1429 22.0084 20.5221 21.9034 20.8653 21.7206C21.0859 21.6031 21.1903 21.5447 21.3755 21.4279C21.3755 21.4279 21.4323 21.3895 21.5419 21.3079C21.7219 21.1738 21.8331 21.0794 21.9829 20.9239C22.0933 20.8092 22.1882 20.6738 22.2615 20.5211C22.3658 20.3035 22.4707 19.8882 22.5125 19.5432C22.5443 19.2798 22.5347 19.1358 22.5313 19.0466C22.5255 18.9031 22.407 18.7555 22.2771 18.6928L21.5018 18.3443C21.5018 18.3443 20.3425 17.8398 19.6334 17.5163C19.5595 17.4826 19.4787 17.467 19.3975 17.462C19.2197 17.4511 19.0203 17.4975 18.8935 17.6311C18.8869 17.6284 18.7986 17.7047 17.8339 18.8734C17.7807 18.937 17.6561 19.0752 17.4405 19.0623C17.4079 19.06 17.3755 19.0554 17.3439 19.0471C17.2566 19.024 17.1715 18.9936 17.0883 18.9584C16.9234 18.8884 16.8655 18.8619 16.7529 18.8134C15.9831 18.4771 15.2767 18.0272 14.6523 17.4767C14.4849 17.3292 14.3291 17.1704 14.1686 17.0148C13.6083 16.4718 13.1496 15.8942 12.8084 15.3244C12.7898 15.2934 12.7611 15.2484 12.7302 15.1982C12.6743 15.1074 12.6128 14.9994 12.5935 14.9252C12.5439 14.7291 12.6754 14.5715 12.6754 14.5715C12.6754 14.5715 12.9999 14.2167 13.1507 14.0238C13.2958 13.838 13.421 13.6564 13.5007 13.527C13.6578 13.2745 13.7075 13.0135 13.625 12.8122C13.2509 11.9002 12.865 10.9932 12.4672 10.0913C12.3887 9.91328 12.1552 9.78396 11.9428 9.75944C11.8709 9.75114 11.7991 9.74279 11.7268 9.73804C11.5481 9.72932 11.369 9.73124 11.1905 9.74379Z" fill="#B79D83"/>
</svg>
